  0
SECTION
  2
HEADER
  9
$ACADVER
  1
AC1006
  9
$EXTMIN
 10
0.000000
 20
0.000000
 30
0.000000
  9
$EXTMAX
 10
1920.000000
 20
1080.000000
 30
0.000000
  0
ENDSEC
  0
SECTION
  2
ENTITIES
  0
POLYLINE
  8
0
 66
1
 70
1
  0
VERTEX
  8
0
 10
22.457386
 20
850.717004
 42
0.050119
  0
VERTEX
  8
0
 10
21.177981
 20
849.371649
 42
0.059339
  0
VERTEX
  8
0
 10
20.273878
 20
847.868781
 42
0.051342
  0
VERTEX
  8
0
 10
19.660967
 20
846.022059
 42
0.026410
  0
VERTEX
  8
0
 10
19.260148
 20
843.615666
 42
-0.018122
  0
VERTEX
  8
0
 10
18.856612
 20
840.917909
 42
-0.086361
  0
VERTEX
  8
0
 10
18.313866
 20
839.462823
 42
-0.122922
  0
VERTEX
  8
0
 10
17.411015
 20
838.539017
 42
-0.054259
  0
VERTEX
  8
0
 10
15.858525
 20
837.800837
 42
0.036594
  0
VERTEX
  8
0
 10
13.634048
 20
836.837751
 42
0.292847
  0
VERTEX
  8
0
 10
13.105133
 20
835.912466
 42
0.350900
  0
VERTEX
  8
0
 10
13.743299
 20
835.192761
 42
0.042631
  0
VERTEX
  8
0
 10
16.000000
 20
835.000000
 42
0.000000
  0
VERTEX
  8
0
 10
19.000000
 20
835.000000
 42
0.000000
  0
VERTEX
  8
0
 10
19.000000
 20
820.500000
 42
0.000000
  0
VERTEX
  8
0
 10
19.000000
 20
806.000000
 42
0.000000
  0
VERTEX
  8
0
 10
21.500000
 20
806.000000
 42
0.000000
  0
VERTEX
  8
0
 10
24.000000
 20
806.000000
 42
0.000000
  0
VERTEX
  8
0
 10
24.000000
 20
820.500000
 42
0.000000
  0
VERTEX
  8
0
 10
24.000000
 20
835.000000
 42
0.000000
  0
VERTEX
  8
0
 10
28.000000
 20
835.000000
 42
0.017388
  0
VERTEX
  8
0
 10
30.150836
 20
835.074821
 42
0.098846
  0
VERTEX
  8
0
 10
31.250000
 20
835.375000
 42
0.184152
  0
VERTEX
  8
0
 10
31.804216
 20
835.978414
 42
0.094959
  0
VERTEX
  8
0
 10
32.000000
 20
837.000000
 42
0.094959
  0
VERTEX
  8
0
 10
31.804216
 20
838.021586
 42
0.184152
  0
VERTEX
  8
0
 10
31.250000
 20
838.625000
 42
0.098846
  0
VERTEX
  8
0
 10
30.150836
 20
838.925179
 42
0.017388
  0
VERTEX
  8
0
 10
28.000000
 20
839.000000
 42
-0.015849
  0
VERTEX
  8
0
 10
25.608493
 20
839.075825
 42
-0.136730
  0
VERTEX
  8
0
 10
24.610037
 20
839.423593
 42
-0.202176
  0
VERTEX
  8
0
 10
24.133151
 20
840.176052
 42
-0.041500
  0
VERTEX
  8
0
 10
24.000000
 20
841.777494
 42
-0.076150
  0
VERTEX
  8
0
 10
24.468897
 20
844.838430
 42
-0.117987
  0
VERTEX
  8
0
 10
25.834537
 20
847.122359
 42
-0.119842
  0
VERTEX
  8
0
 10
28.067925
 20
848.517802
 42
-0.080150
  0
VERTEX
  8
0
 10
31.056704
 20
849.000000
 42
0.017866
  0
VERTEX
  8
0
 10
33.170387
 20
849.075552
 42
0.099811
  0
VERTEX
  8
0
 10
34.257088
 20
849.376797
 42
0.183533
  0
VERTEX
  8
0
 10
34.806340
 20
849.980281
 42
0.094116
  0
VERTEX
  8
0
 10
35.000000
 20
851.000000
 42
0.329794
  0
VERTEX
  8
0
 10
33.752384
 20
852.685778
 42
0.079946
  0
VERTEX
  8
0
 10
30.101433
 20
853.189091
 42
0.066265
  0
VERTEX
  8
0
 10
25.747427
 20
852.509231
 42
0.106180
  0
SEQEND
  0
POLYLINE
  8
0
 66
1
 70
1
  0
VERTEX
  8
0
 10
39.000000
 20
829.500000
 42
0.000000
  0
VERTEX
  8
0
 10
39.000000
 20
806.000000
 42
0.000000
  0
VERTEX
  8
0
 10
41.500000
 20
806.000000
 42
0.000000
  0
VERTEX
  8
0
 10
44.000000
 20
806.000000
 42
0.000000
  0
VERTEX
  8
0
 10
44.000000
 20
829.500000
 42
0.000000
  0
VERTEX
  8
0
 10
44.000000
 20
853.000000
 42
0.000000
  0
VERTEX
  8
0
 10
41.500000
 20
853.000000
 42
0.000000
  0
VERTEX
  8
0
 10
39.000000
 20
853.000000
 42
0.000000
  0
SEQEND
  0
POLYLINE
  8
0
 66
1
 70
1
  0
VERTEX
  8
0
 10
304.000000
 20
843.411106
 42
0.000000
  0
VERTEX
  8
0
 10
304.000000
 20
833.822213
 42
0.000000
  0
VERTEX
  8
0
 10
300.796197
 20
836.518036
 42
0.031199
  0
VERTEX
  8
0
 10
298.845237
 20
837.961923
 42
0.078827
  0
VERTEX
  8
0
 10
297.235735
 20
838.675712
 42
0.067427
  0
VERTEX
  8
0
 10
295.337203
 20
838.915128
 42
0.018385
  0
VERTEX
  8
0
 10
292.311694
 20
838.775942
 42
0.084357
  0
VERTEX
  8
0
 10
286.827332
 20
837.369397
 42
0.126625
  0
VERTEX
  8
0
 10
282.978137
 20
834.311833
 42
0.109535
  0
VERTEX
  8
0
 10
280.732100
 20
829.406781
 42
0.052851
  0
VERTEX
  8
0
 10
280.000000
 20
822.500000
 42
0.058915
  0
VERTEX
  8
0
 10
280.836788
 20
815.423052
 42
0.108950
  0
VERTEX
  8
0
 10
283.355863
 20
810.240403
 42
0.127556
  0
VERTEX
  8
0
 10
287.494526
 20
807.109960
 42
0.098779
  0
VERTEX
  8
0
 10
293.058133
 20
806.000000
 42
0.026208
  0
VERTEX
  8
0
 10
295.542399
 20
806.130305
 42
0.052257
  0
VERTEX
  8
0
 10
297.466070
 20
806.538767
 42
0.057491
  0
VERTEX
  8
0
 10
299.142568
 20
807.304607
 42
0.039057
  0
VERTEX
  8
0
 10
300.850139
 20
808.527354
 42
0.000000
  0
VERTEX
  8
0
 10
303.853729
 20
811.054708
 42
0.000000
  0
VERTEX
  8
0
 10
304.176864
 20
808.777354
 42
0.069652
  0
VERTEX
  8
0
 10
304.462595
 20
807.783806
 42
0.090670
  0
VERTEX
  8
0
 10
304.996036
 20
807.004001
 42
0.091220
  0
VERTEX
  8
0
 10
305.768064
 20
806.466642
 42
0.071382
  0
VERTEX
  8
0
 10
306.750000
 20
806.180449
 42
0.000000
  0
VERTEX
  8
0
 10
309.000000
 20
805.860898
 42
0.000000
  0
VERTEX
  8
0
 10
309.000000
 20
829.430449
 42
0.000000
  0
VERTEX
  8
0
 10
309.000000
 20
853.000000
 42
0.000000
  0
VERTEX
  8
0
 10
306.500000
 20
853.000000
 42
0.110619
  0
VERTEX
  8
0
 10
305.048421
 20
852.674878
 42
0.222326
  0
VERTEX
  8
0
 10
304.315180
 20
851.791111
 42
0.060475
  0
VERTEX
  8
0
 10
304.042738
 20
849.773759
 42
0.003358
  0
SEQEND
  0
POLYLINE
  8
0
 66
1
 70
1
  0
VERTEX
  8
0
 10
300.430447
 20
832.660462
 42
-0.129046
  0
VERTEX
  8
0
 10
303.007421
 20
828.249382
 42
-0.069973
  0
VERTEX
  8
0
 10
303.841863
 20
821.980614
 42
-0.071332
  0
VERTEX
  8
0
 10
302.921428
 20
815.882493
 42
-0.154218
  0
VERTEX
  8
0
 10
300.277914
 20
812.003967
 42
-0.091408
  0
VERTEX
  8
0
 10
297.271116
 20
810.422482
 42
-0.087356
  0
VERTEX
  8
0
 10
293.848673
 20
809.983293
 42
-0.089656
  0
VERTEX
  8
0
 10
290.557879
 20
810.738119
 42
-0.103441
  0
VERTEX
  8
0
 10
287.924314
 20
812.580564
 42
-0.051417
  0
VERTEX
  8
0
 10
286.632518
 20
814.274748
 42
-0.077405
  0
VERTEX
  8
0
 10
285.920492
 20
815.986446
 42
-0.049525
  0
VERTEX
  8
0
 10
285.586848
 20
818.341548
 42
-0.010441
  0
VERTEX
  8
0
 10
285.500000
 20
822.500000
 42
-0.010441
  0
VERTEX
  8
0
 10
285.586848
 20
826.658452
 42
-0.049525
  0
VERTEX
  8
0
 10
285.920492
 20
829.013554
 42
-0.077405
  0
VERTEX
  8
0
 10
286.632518
 20
830.725252
 42
-0.051417
  0
VERTEX
  8
0
 10
287.924314
 20
832.419436
 42
-0.104732
  0
VERTEX
  8
0
 10
290.712924
 20
834.359762
 42
-0.095269
  0
VERTEX
  8
0
 10
294.146382
 20
835.088834
 42
-0.095584
  0
VERTEX
  8
0
 10
297.595773
 20
834.492040
 42
-0.106270
  0
SEQEND
  0
POLYLINE
  8
0
 66
1
 70
1
  0
VERTEX
  8
0
 10
390.000000
 20
829.500000
 42
0.001812
  0
VERTEX
  8
0
 10
390.047797
 20
816.310229
 42
0.014125
  0
VERTEX
  8
0
 10
390.265957
 20
810.166667
 42
0.024114
  0
VERTEX
  8
0
 10
390.653380
 20
806.720815
 42
0.368039
  0
VERTEX
  8
0
 10
391.500000
 20
806.000000
 42
0.047959
  0
VERTEX
  8
0
 10
392.075172
 20
806.055296
 42
0.067078
  0
VERTEX
  8
0
 10
392.563873
 20
806.220312
 42
0.086226
  0
VERTEX
  8
0
 10
392.896279
 20
806.463503
 42
0.188882
  0
VERTEX
  8
0
 10
393.015313
 20
806.750000
 42
-0.073039
  0
VERTEX
  8
0
 10
393.079271
 20
807.131199
 42
-0.021269
  0
VERTEX
  8
0
 10
393.286496
 20
807.690915
 42
-0.020887
  0
VERTEX
  8
0
 10
393.576597
 20
808.308913
 42
-0.020949
  0
VERTEX
  8
0
 10
393.916987
 20
808.899923
 42
-0.105880
  0
VERTEX
  8
0
 10
394.503080
 20
809.497840
 42
-0.199778
  0
VERTEX
  8
0
 10
395.155319
 20
809.623311
 42
-0.099142
  0
VERTEX
  8
0
 10
396.042767
 20
809.246056
 42
-0.016732
  0
VERTEX
  8
0
 10
397.536533
 20
808.149923
 42
0.100332
  0
VERTEX
  8
0
 10
400.794955
 20
806.508991
 42
0.065688
  0
VERTEX
  8
0
 10
404.975446
 20
805.939731
 42
0.065840
  0
VERTEX
  8
0
 10
409.148763
 20
806.474054
 42
0.102276
  0
VERTEX
  8
0
 10
412.385121
 20
808.088296
 42
0.060890
  0
VERTEX
  8
0
 10
415.003643
 20
810.721251
 42
0.072503
  0
VERTEX
  8
0
 10
416.731464
 20
813.765250
 42
0.061852
  0
VERTEX
  8
0
 10
417.692305
 20
817.560372
 42
0.031115
  0
VERTEX
  8
0
 10
418.000000
 20
822.500000
 42
0.056564
  0
VERTEX
  8
0
 10
417.184557
 20
829.685107
 42
0.111322
  0
VERTEX
  8
0
 10
414.708397
 20
834.840795
 42
0.131066
  0
VERTEX
  8
0
 10
410.585950
 20
837.914453
 42
0.095294
  0
VERTEX
  8
0
 10
404.941867
 20
839.000000
 42
0.026337
  0
VERTEX
  8
0
 10
402.440871
 20
838.868171
 42
0.053217
  0
VERTEX
  8
0
 10
400.514314
 20
838.454202
 42
0.057981
  0
VERTEX
  8
0
 10
398.826041
 20
837.672097
 42
0.037480
  0
VERTEX
  8
0
 10
397.076725
 20
836.411106
 42
0.000000
  0
VERTEX
  8
0
 10
394.000000
 20
833.822213
 42
0.000000
  0
VERTEX
  8
0
 10
394.000000
 20
843.411106
 42
0.004092
  0
VERTEX
  8
0
 10
393.952049
 20
849.270698
 42
0.047350
  0
VERTEX
  8
0
 10
393.697856
 20
851.551388
 42
0.163547
  0
VERTEX
  8
0
 10
393.088073
 20
852.592480
 42
0.181123
  0
VERTEX
  8
0
 10
392.000000
 20
853.000000
 42
0.307340
  0
VERTEX
  8
0
 10
390.836465
 20
852.210196
 42
0.073428
  0
VERTEX
  8
0
 10
390.271277
 20
849.812500
 42
0.019955
  0
VERTEX
  8
0
 10
390.038556
 20
844.644071
 42
0.001273
  0
SEQEND
  0
POLYLINE
  8
0
 66
1
 70
1
  0
VERTEX
  8
0
 10
408.455198
 20
834.378819
 42
-0.238303
  0
VERTEX
  8
0
 10
411.876431
 20
830.605571
 42
-0.067258
  0
VERTEX
  8
0
 10
412.971721
 20
822.500000
 42
-0.067258
  0
VERTEX
  8
0
 10
411.876431
 20
814.394429
 42
-0.238303
  0
VERTEX
  8
0
 10
408.455198
 20
810.621181
 42
-0.071983
  0
VERTEX
  8
0
 10
405.908604
 20
810.044517
 42
-0.047448
  0
VERTEX
  8
0
 10
402.901176
 20
810.092195
 42
-0.048294
  0
VERTEX
  8
0
 10
400.056118
 20
810.690241
 42
-0.094519
  0
VERTEX
  8
0
 10
398.022675
 20
811.780555
 42
-0.162512
  0
VERTEX
  8
0
 10
395.458280
 20
815.799648
 42
-0.061425
  0
VERTEX
  8
0
 10
394.630035
 20
822.497866
 42
-0.061429
  0
VERTEX
  8
0
 10
395.453793
 20
829.195814
 42
-0.162678
  0
VERTEX
  8
0
 10
398.015589
 20
833.213706
 42
-0.094304
  0
VERTEX
  8
0
 10
400.052614
 20
834.307063
 42
-0.048391
  0
VERTEX
  8
0
 10
402.898598
 20
834.907271
 42
-0.047542
  0
VERTEX
  8
0
 10
405.906626
 20
834.955805
 42
-0.072006
  0
SEQEND
  0
POLYLINE
  8
0
 66
1
 70
1
  0
VERTEX
  8
0
 10
572.457386
 20
850.717004
 42
0.050119
  0
VERTEX
  8
0
 10
571.177981
 20
849.371649
 42
0.059339
  0
VERTEX
  8
0
 10
570.273878
 20
847.868781
 42
0.051342
  0
VERTEX
  8
0
 10
569.660967
 20
846.022059
 42
0.026410
  0
VERTEX
  8
0
 10
569.260148
 20
843.615666
 42
-0.018122
  0
VERTEX
  8
0
 10
568.856612
 20
840.917909
 42
-0.086361
  0
VERTEX
  8
0
 10
568.313866
 20
839.462823
 42
-0.122922
  0
VERTEX
  8
0
 10
567.411015
 20
838.539017
 42
-0.054259
  0
VERTEX
  8
0
 10
565.858525
 20
837.800837
 42
0.036594
  0
VERTEX
  8
0
 10
563.634048
 20
836.837751
 42
0.292847
  0
VERTEX
  8
0
 10
563.105133
 20
835.912466
 42
0.350900
  0
VERTEX
  8
0
 10
563.743299
 20
835.192761
 42
0.042631
  0
VERTEX
  8
0
 10
566.000000
 20
835.000000
 42
0.000000
  0
VERTEX
  8
0
 10
569.000000
 20
835.000000
 42
0.000000
  0
VERTEX
  8
0
 10
569.000000
 20
820.500000
 42
0.000000
  0
VERTEX
  8
0
 10
569.000000
 20
806.000000
 42
0.000000
  0
VERTEX
  8
0
 10
571.500000
 20
806.000000
 42
0.000000
  0
VERTEX
  8
0
 10
574.000000
 20
806.000000
 42
0.000000
  0
VERTEX
  8
0
 10
574.000000
 20
820.500000
 42
0.000000
  0
VERTEX
  8
0
 10
574.000000
 20
835.000000
 42
0.000000
  0
VERTEX
  8
0
 10
578.000000
 20
835.000000
 42
0.017388
  0
VERTEX
  8
0
 10
580.150836
 20
835.074821
 42
0.098846
  0
VERTEX
  8
0
 10
581.250000
 20
835.375000
 42
0.184152
  0
VERTEX
  8
0
 10
581.804216
 20
835.978414
 42
0.094959
  0
VERTEX
  8
0
 10
582.000000
 20
837.000000
 42
0.094959
  0
VERTEX
  8
0
 10
581.804216
 20
838.021586
 42
0.184152
  0
VERTEX
  8
0
 10
581.250000
 20
838.625000
 42
0.098846
  0
VERTEX
  8
0
 10
580.150836
 20
838.925179
 42
0.017388
  0
VERTEX
  8
0
 10
578.000000
 20
839.000000
 42
-0.015849
  0
VERTEX
  8
0
 10
575.608493
 20
839.075825
 42
-0.136730
  0
VERTEX
  8
0
 10
574.610037
 20
839.423593
 42
-0.202176
  0
VERTEX
  8
0
 10
574.133151
 20
840.176052
 42
-0.041500
  0
VERTEX
  8
0
 10
574.000000
 20
841.777494
 42
-0.076150
  0
VERTEX
  8
0
 10
574.468897
 20
844.838430
 42
-0.117987
  0
VERTEX
  8
0
 10
575.834537
 20
847.122359
 42
-0.119842
  0
VERTEX
  8
0
 10
578.067925
 20
848.517802
 42
-0.080150
  0
VERTEX
  8
0
 10
581.056704
 20
849.000000
 42
0.017866
  0
VERTEX
  8
0
 10
583.170387
 20
849.075552
 42
0.099811
  0
VERTEX
  8
0
 10
584.257088
 20
849.376797
 42
0.183533
  0
VERTEX
  8
0
 10
584.806340
 20
849.980281
 42
0.094116
  0
VERTEX
  8
0
 10
585.000000
 20
851.000000
 42
0.329794
  0
VERTEX
  8
0
 10
583.752384
 20
852.685778
 42
0.079946
  0
VERTEX
  8
0
 10
580.101433
 20
853.189091
 42
0.066265
  0
VERTEX
  8
0
 10
575.747427
 20
852.509231
 42
0.106180
  0
SEQEND
  0
POLYLINE
  8
0
 66
1
 70
1
  0
VERTEX
  8
0
 10
681.000000
 20
843.411106
 42
0.000000
  0
VERTEX
  8
0
 10
681.000000
 20
833.822213
 42
0.000000
  0
VERTEX
  8
0
 10
677.796197
 20
836.518036
 42
0.031199
  0
VERTEX
  8
0
 10
675.845237
 20
837.961923
 42
0.078827
  0
VERTEX
  8
0
 10
674.235735
 20
838.675712
 42
0.067427
  0
VERTEX
  8
0
 10
672.337203
 20
838.915128
 42
0.018385
  0
VERTEX
  8
0
 10
669.311694
 20
838.775942
 42
0.084357
  0
VERTEX
  8
0
 10
663.827332
 20
837.369397
 42
0.126625
  0
VERTEX
  8
0
 10
659.978137
 20
834.311833
 42
0.109535
  0
VERTEX
  8
0
 10
657.732100
 20
829.406781
 42
0.052851
  0
VERTEX
  8
0
 10
657.000000
 20
822.500000
 42
0.058915
  0
VERTEX
  8
0
 10
657.836788
 20
815.423052
 42
0.108950
  0
VERTEX
  8
0
 10
660.355863
 20
810.240403
 42
0.127556
  0
VERTEX
  8
0
 10
664.494526
 20
807.109960
 42
0.098779
  0
VERTEX
  8
0
 10
670.058133
 20
806.000000
 42
0.026208
  0
VERTEX
  8
0
 10
672.542399
 20
806.130305
 42
0.052257
  0
VERTEX
  8
0
 10
674.466070
 20
806.538767
 42
0.057491
  0
VERTEX
  8
0
 10
676.142568
 20
807.304607
 42
0.039057
  0
VERTEX
  8
0
 10
677.850139
 20
808.527354
 42
0.000000
  0
VERTEX
  8
0
 10
680.853729
 20
811.054708
 42
0.000000
  0
VERTEX
  8
0
 10
681.176864
 20
808.777354
 42
0.069652
  0
VERTEX
  8
0
 10
681.462595
 20
807.783806
 42
0.090670
  0
VERTEX
  8
0
 10
681.996036
 20
807.004001
 42
0.091220
  0
VERTEX
  8
0
 10
682.768064
 20
806.466642
 42
0.071382
  0
VERTEX
  8
0
 10
683.750000
 20
806.180449
 42
0.000000
  0
VERTEX
  8
0
 10
686.000000
 20
805.860898
 42
0.000000
  0
VERTEX
  8
0
 10
686.000000
 20
829.430449
 42
0.000000
  0
VERTEX
  8
0
 10
686.000000
 20
853.000000
 42
0.000000
  0
VERTEX
  8
0
 10
683.500000
 20
853.000000
 42
0.110619
  0
VERTEX
  8
0
 10
682.048421
 20
852.674878
 42
0.222326
  0
VERTEX
  8
0
 10
681.315180
 20
851.791111
 42
0.060475
  0
VERTEX
  8
0
 10
681.042738
 20
849.773759
 42
0.003358
  0
SEQEND
  0
POLYLINE
  8
0
 66
1
 70
1
  0
VERTEX
  8
0
 10
677.430447
 20
832.660462
 42
-0.129046
  0
VERTEX
  8
0
 10
680.007421
 20
828.249382
 42
-0.069973
  0
VERTEX
  8
0
 10
680.841863
 20
821.980614
 42
-0.071332
  0
VERTEX
  8
0
 10
679.921428
 20
815.882493
 42
-0.154218
  0
VERTEX
  8
0
 10
677.277914
 20
812.003967
 42
-0.091408
  0
VERTEX
  8
0
 10
674.271116
 20
810.422482
 42
-0.087356
  0
VERTEX
  8
0
 10
670.848673
 20
809.983293
 42
-0.089656
  0
VERTEX
  8
0
 10
667.557879
 20
810.738119
 42
-0.103441
  0
VERTEX
  8
0
 10
664.924314
 20
812.580564
 42
-0.051417
  0
VERTEX
  8
0
 10
663.632518
 20
814.274748
 42
-0.077405
  0
VERTEX
  8
0
 10
662.920492
 20
815.986446
 42
-0.049525
  0
VERTEX
  8
0
 10
662.586848
 20
818.341548
 42
-0.010441
  0
VERTEX
  8
0
 10
662.500000
 20
822.500000
 42
-0.010441
  0
VERTEX
  8
0
 10
662.586848
 20
826.658452
 42
-0.049525
  0
VERTEX
  8
0
 10
662.920492
 20
829.013554
 42
-0.077405
  0
VERTEX
  8
0
 10
663.632518
 20
830.725252
 42
-0.051417
  0
VERTEX
  8
0
 10
664.924314
 20
832.419436
 42
-0.104732
  0
VERTEX
  8
0
 10
667.712924
 20
834.359762
 42
-0.095269
  0
VERTEX
  8
0
 10
671.146382
 20
835.088834
 42
-0.095584
  0
VERTEX
  8
0
 10
674.595773
 20
834.492040
 42
-0.106270
  0
SEQEND
  0
POLYLINE
  8
0
 66
1
 70
1
  0
VERTEX
  8
0
 10
732.000000
 20
829.500000
 42
0.001812
  0
VERTEX
  8
0
 10
732.047797
 20
816.310229
 42
0.014125
  0
VERTEX
  8
0
 10
732.265957
 20
810.166667
 42
0.024114
  0
VERTEX
  8
0
 10
732.653380
 20
806.720815
 42
0.368039
  0
VERTEX
  8
0
 10
733.500000
 20
806.000000
 42
0.047959
  0
VERTEX
  8
0
 10
734.075172
 20
806.055296
 42
0.067078
  0
VERTEX
  8
0
 10
734.563873
 20
806.220312
 42
0.086226
  0
VERTEX
  8
0
 10
734.896279
 20
806.463503
 42
0.188882
  0
VERTEX
  8
0
 10
735.015313
 20
806.750000
 42
-0.073039
  0
VERTEX
  8
0
 10
735.079271
 20
807.131199
 42
-0.021269
  0
VERTEX
  8
0
 10
735.286496
 20
807.690915
 42
-0.020887
  0
VERTEX
  8
0
 10
735.576597
 20
808.308913
 42
-0.020949
  0
VERTEX
  8
0
 10
735.916987
 20
808.899923
 42
-0.105880
  0
VERTEX
  8
0
 10
736.503080
 20
809.497840
 42
-0.199778
  0
VERTEX
  8
0
 10
737.155319
 20
809.623311
 42
-0.099142
  0
VERTEX
  8
0
 10
738.042767
 20
809.246056
 42
-0.016732
  0
VERTEX
  8
0
 10
739.536533
 20
808.149923
 42
0.124006
  0
VERTEX
  8
0
 10
744.328503
 20
806.011313
 42
0.106667
  0
VERTEX
  8
0
 10
749.854864
 20
806.229816
 42
0.103042
  0
VERTEX
  8
0
 10
754.951996
 20
808.738744
 42
0.108114
  0
VERTEX
  8
0
 10
758.519980
 20
813.038636
 42
0.090843
  0
VERTEX
  8
0
 10
759.645285
 20
816.727857
 42
0.028726
  0
VERTEX
  8
0
 10
759.977178
 20
822.500000
 42
0.028726
  0
VERTEX
  8
0
 10
759.645285
 20
828.272143
 42
0.090843
  0
VERTEX
  8
0
 10
758.519980
 20
831.961364
 42
0.108350
  0
VERTEX
  8
0
 10
754.834399
 20
836.398750
 42
0.109648
  0
VERTEX
  8
0
 10
749.645353
 20
838.863282
 42
0.112621
  0
VERTEX
  8
0
 10
744.014552
 20
838.867142
 42
0.119538
  0
VERTEX
  8
0
 10
739.076725
 20
836.411106
 42
0.000000
  0
VERTEX
  8
0
 10
736.000000
 20
833.822213
 42
0.000000
  0
VERTEX
  8
0
 10
736.000000
 20
843.411106
 42
0.004092
  0
VERTEX
  8
0
 10
735.952049
 20
849.270698
 42
0.047350
  0
VERTEX
  8
0
 10
735.697856
 20
851.551388
 42
0.163547
  0
VERTEX
  8
0
 10
735.088073
 20
852.592480
 42
0.181123
  0
VERTEX
  8
0
 10
734.000000
 20
853.000000
 42
0.307340
  0
VERTEX
  8
0
 10
732.836465
 20
852.210196
 42
0.073428
  0
VERTEX
  8
0
 10
732.271277
 20
849.812500
 42
0.019955
  0
VERTEX
  8
0
 10
732.038556
 20
844.644071
 42
0.001273
  0
SEQEND
  0
POLYLINE
  8
0
 66
1
 70
1
  0
VERTEX
  8
0
 10
750.455198
 20
834.378819
 42
-0.238303
  0
VERTEX
  8
0
 10
753.876431
 20
830.605571
 42
-0.067258
  0
VERTEX
  8
0
 10
754.971721
 20
822.500000
 42
-0.067258
  0
VERTEX
  8
0
 10
753.876431
 20
814.394429
 42
-0.238303
  0
VERTEX
  8
0
 10
750.455198
 20
810.621181
 42
-0.071983
  0
VERTEX
  8
0
 10
747.908604
 20
810.044517
 42
-0.047448
  0
VERTEX
  8
0
 10
744.901176
 20
810.092195
 42
-0.048294
  0
VERTEX
  8
0
 10
742.056118
 20
810.690241
 42
-0.094519
  0
VERTEX
  8
0
 10
740.022675
 20
811.780555
 42
-0.162512
  0
VERTEX
  8
0
 10
737.458280
 20
815.799648
 42
-0.061425
  0
VERTEX
  8
0
 10
736.630035
 20
822.497866
 42
-0.061429
  0
VERTEX
  8
0
 10
737.453793
 20
829.195814
 42
-0.162678
  0
VERTEX
  8
0
 10
740.015589
 20
833.213706
 42
-0.094304
  0
VERTEX
  8
0
 10
742.052614
 20
834.307063
 42
-0.048391
  0
VERTEX
  8
0
 10
744.898598
 20
834.907271
 42
-0.047542
  0
VERTEX
  8
0
 10
747.906626
 20
834.955805
 42
-0.072006
  0
SEQEND
  0
POLYLINE
  8
0
 66
1
 70
1
  0
VERTEX
  8
0
 10
932.000000
 20
843.411106
 42
0.000000
  0
VERTEX
  8
0
 10
932.000000
 20
833.822213
 42
0.000000
  0
VERTEX
  8
0
 10
928.796197
 20
836.518036
 42
0.031199
  0
VERTEX
  8
0
 10
926.845237
 20
837.961923
 42
0.078827
  0
VERTEX
  8
0
 10
925.235735
 20
838.675712
 42
0.067427
  0
VERTEX
  8
0
 10
923.337203
 20
838.915128
 42
0.018385
  0
VERTEX
  8
0
 10
920.311694
 20
838.775942
 42
0.084357
  0
VERTEX
  8
0
 10
914.827332
 20
837.369397
 42
0.126625
  0
VERTEX
  8
0
 10
910.978137
 20
834.311833
 42
0.109535
  0
VERTEX
  8
0
 10
908.732100
 20
829.406781
 42
0.052851
  0
VERTEX
  8
0
 10
908.000000
 20
822.500000
 42
0.058915
  0
VERTEX
  8
0
 10
908.836788
 20
815.423052
 42
0.108950
  0
VERTEX
  8
0
 10
911.355863
 20
810.240403
 42
0.127556
  0
VERTEX
  8
0
 10
915.494526
 20
807.109960
 42
0.098779
  0
VERTEX
  8
0
 10
921.058133
 20
806.000000
 42
0.026208
  0
VERTEX
  8
0
 10
923.542399
 20
806.130305
 42
0.052257
  0
VERTEX
  8
0
 10
925.466070
 20
806.538767
 42
0.057491
  0
VERTEX
  8
0
 10
927.142568
 20
807.304607
 42
0.039057
  0
VERTEX
  8
0
 10
928.850139
 20
808.527354
 42
0.000000
  0
VERTEX
  8
0
 10
931.853729
 20
811.054708
 42
0.000000
  0
VERTEX
  8
0
 10
932.176864
 20
808.777354
 42
0.069652
  0
VERTEX
  8
0
 10
932.462595
 20
807.783806
 42
0.090670
  0
VERTEX
  8
0
 10
932.996036
 20
807.004001
 42
0.091220
  0
VERTEX
  8
0
 10
933.768064
 20
806.466642
 42
0.071382
  0
VERTEX
  8
0
 10
934.750000
 20
806.180449
 42
0.000000
  0
VERTEX
  8
0
 10
937.000000
 20
805.860898
 42
0.000000
  0
VERTEX
  8
0
 10
937.000000
 20
829.430449
 42
0.000000
  0
VERTEX
  8
0
 10
937.000000
 20
853.000000
 42
0.000000
  0
VERTEX
  8
0
 10
934.500000
 20
853.000000
 42
0.110619
  0
VERTEX
  8
0
 10
933.048421
 20
852.674878
 42
0.222326
  0
VERTEX
  8
0
 10
932.315180
 20
851.791111
 42
0.060475
  0
VERTEX
  8
0
 10
932.042738
 20
849.773759
 42
0.003358
  0
SEQEND
  0
POLYLINE
  8
0
 66
1
 70
1
  0
VERTEX
  8
0
 10
928.430447
 20
832.660462
 42
-0.129046
  0
VERTEX
  8
0
 10
931.007421
 20
828.249382
 42
-0.069973
  0
VERTEX
  8
0
 10
931.841863
 20
821.980614
 42
-0.071332
  0
VERTEX
  8
0
 10
930.921428
 20
815.882493
 42
-0.154218
  0
VERTEX
  8
0
 10
928.277914
 20
812.003967
 42
-0.091408
  0
VERTEX
  8
0
 10
925.271116
 20
810.422482
 42
-0.087356
  0
VERTEX
  8
0
 10
921.848673
 20
809.983293
 42
-0.089656
  0
VERTEX
  8
0
 10
918.557879
 20
810.738119
 42
-0.103441
  0
VERTEX
  8
0
 10
915.924314
 20
812.580564
 42
-0.051417
  0
VERTEX
  8
0
 10
914.632518
 20
814.274748
 42
-0.077405
  0
VERTEX
  8
0
 10
913.920492
 20
815.986446
 42
-0.049525
  0
VERTEX
  8
0
 10
913.586848
 20
818.341548
 42
-0.010441
  0
VERTEX
  8
0
 10
913.500000
 20
822.500000
 42
-0.010441
  0
VERTEX
  8
0
 10
913.586848
 20
826.658452
 42
-0.049525
  0
VERTEX
  8
0
 10
913.920492
 20
829.013554
 42
-0.077405
  0
VERTEX
  8
0
 10
914.632518
 20
830.725252
 42
-0.051417
  0
VERTEX
  8
0
 10
915.924314
 20
832.419436
 42
-0.104732
  0
VERTEX
  8
0
 10
918.712924
 20
834.359762
 42
-0.095269
  0
VERTEX
  8
0
 10
922.146382
 20
835.088834
 42
-0.095584
  0
VERTEX
  8
0
 10
925.595773
 20
834.492040
 42
-0.106270
  0
SEQEND
  0
POLYLINE
  8
0
 66
1
 70
1
  0
VERTEX
  8
0
 10
1005.000000
 20
843.411106
 42
0.000000
  0
VERTEX
  8
0
 10
1005.000000
 20
833.822213
 42
0.000000
  0
VERTEX
  8
0
 10
1001.796197
 20
836.518036
 42
0.031199
  0
VERTEX
  8
0
 10
999.845237
 20
837.961923
 42
0.078827
  0
VERTEX
  8
0
 10
998.235735
 20
838.675712
 42
0.067427
  0
VERTEX
  8
0
 10
996.337203
 20
838.915128
 42
0.018385
  0
VERTEX
  8
0
 10
993.311694
 20
838.775942
 42
0.084357
  0
VERTEX
  8
0
 10
987.827332
 20
837.369397
 42
0.126625
  0
VERTEX
  8
0
 10
983.978137
 20
834.311833
 42
0.109535
  0
VERTEX
  8
0
 10
981.732100
 20
829.406781
 42
0.052851
  0
VERTEX
  8
0
 10
981.000000
 20
822.500000
 42
0.058915
  0
VERTEX
  8
0
 10
981.836788
 20
815.423052
 42
0.108950
  0
VERTEX
  8
0
 10
984.355863
 20
810.240403
 42
0.127556
  0
VERTEX
  8
0
 10
988.494526
 20
807.109960
 42
0.098779
  0
VERTEX
  8
0
 10
994.058133
 20
806.000000
 42
0.026208
  0
VERTEX
  8
0
 10
996.542399
 20
806.130305
 42
0.052257
  0
VERTEX
  8
0
 10
998.466070
 20
806.538767
 42
0.057491
  0
VERTEX
  8
0
 10
1000.142568
 20
807.304607
 42
0.039057
  0
VERTEX
  8
0
 10
1001.850139
 20
808.527354
 42
0.000000
  0
VERTEX
  8
0
 10
1004.853729
 20
811.054708
 42
0.000000
  0
VERTEX
  8
0
 10
1005.176864
 20
808.777354
 42
0.069652
  0
VERTEX
  8
0
 10
1005.462595
 20
807.783806
 42
0.090670
  0
VERTEX
  8
0
 10
1005.996036
 20
807.004001
 42
0.091220
  0
VERTEX
  8
0
 10
1006.768064
 20
806.466642
 42
0.071382
  0
VERTEX
  8
0
 10
1007.750000
 20
806.180449
 42
0.000000
  0
VERTEX
  8
0
 10
1010.000000
 20
805.860898
 42
0.000000
  0
VERTEX
  8
0
 10
1010.000000
 20
829.430449
 42
0.000000
  0
VERTEX
  8
0
 10
1010.000000
 20
853.000000
 42
0.000000
  0
VERTEX
  8
0
 10
1007.500000
 20
853.000000
 42
0.110619
  0
VERTEX
  8
0
 10
1006.048421
 20
852.674878
 42
0.222326
  0
VERTEX
  8
0
 10
1005.315180
 20
851.791111
 42
0.060475
  0
VERTEX
  8
0
 10
1005.042738
 20
849.773759
 42
0.003358
  0
SEQEND
  0
POLYLINE
  8
0
 66
1
 70
1
  0
VERTEX
  8
0
 10
1001.430447
 20
832.660462
 42
-0.129046
  0
VERTEX
  8
0
 10
1004.007421
 20
828.249382
 42
-0.069973
  0
VERTEX
  8
0
 10
1004.841863
 20
821.980614
 42
-0.071332
  0
VERTEX
  8
0
 10
1003.921428
 20
815.882493
 42
-0.154218
  0
VERTEX
  8
0
 10
1001.277914
 20
812.003967
 42
-0.091408
  0
VERTEX
  8
0
 10
998.271116
 20
810.422482
 42
-0.087356
  0
VERTEX
  8
0
 10
994.848673
 20
809.983293
 42
-0.089656
  0
VERTEX
  8
0
 10
991.557879
 20
810.738119
 42
-0.103441
  0
VERTEX
  8
0
 10
988.924314
 20
812.580564
 42
-0.051417
  0
VERTEX
  8
0
 10
987.632518
 20
814.274748
 42
-0.077405
  0
VERTEX
  8
0
 10
986.920492
 20
815.986446
 42
-0.049525
  0
VERTEX
  8
0
 10
986.586848
 20
818.341548
 42
-0.010441
  0
VERTEX
  8
0
 10
986.500000
 20
822.500000
 42
-0.010441
  0
VERTEX
  8
0
 10
986.586848
 20
826.658452
 42
-0.049525
  0
VERTEX
  8
0
 10
986.920492
 20
829.013554
 42
-0.077405
  0
VERTEX
  8
0
 10
987.632518
 20
830.725252
 42
-0.051417
  0
VERTEX
  8
0
 10
988.924314
 20
832.419436
 42
-0.104732
  0
VERTEX
  8
0
 10
991.712924
 20
834.359762
 42
-0.095269
  0
VERTEX
  8
0
 10
995.146382
 20
835.088834
 42
-0.095584
  0
VERTEX
  8
0
 10
998.595773
 20
834.492040
 42
-0.106270
  0
SEQEND
  0
POLYLINE
  8
0
 66
1
 70
1
  0
VERTEX
  8
0
 10
1021.000000
 20
829.500000
 42
0.001812
  0
VERTEX
  8
0
 10
1021.047797
 20
816.310229
 42
0.014125
  0
VERTEX
  8
0
 10
1021.265957
 20
810.166667
 42
0.024114
  0
VERTEX
  8
0
 10
1021.653380
 20
806.720815
 42
0.368039
  0
VERTEX
  8
0
 10
1022.500000
 20
806.000000
 42
0.047959
  0
VERTEX
  8
0
 10
1023.075172
 20
806.055296
 42
0.067078
  0
VERTEX
  8
0
 10
1023.563873
 20
806.220312
 42
0.086226
  0
VERTEX
  8
0
 10
1023.896279
 20
806.463503
 42
0.188882
  0
VERTEX
  8
0
 10
1024.015313
 20
806.750000
 42
-0.073039
  0
VERTEX
  8
0
 10
1024.079271
 20
807.131199
 42
-0.021269
  0
VERTEX
  8
0
 10
1024.286496
 20
807.690915
 42
-0.020887
  0
VERTEX
  8
0
 10
1024.576597
 20
808.308913
 42
-0.020949
  0
VERTEX
  8
0
 10
1024.916987
 20
808.899923
 42
-0.105880
  0
VERTEX
  8
0
 10
1025.503080
 20
809.497840
 42
-0.199778
  0
VERTEX
  8
0
 10
1026.155319
 20
809.623311
 42
-0.099142
  0
VERTEX
  8
0
 10
1027.042767
 20
809.246056
 42
-0.016732
  0
VERTEX
  8
0
 10
1028.536533
 20
808.149923
 42
0.100332
  0
VERTEX
  8
0
 10
1031.794955
 20
806.508991
 42
0.065688
  0
VERTEX
  8
0
 10
1035.975446
 20
805.939731
 42
0.065840
  0
VERTEX
  8
0
 10
1040.148763
 20
806.474054
 42
0.102276
  0
VERTEX
  8
0
 10
1043.385121
 20
808.088296
 42
0.060890
  0
VERTEX
  8
0
 10
1046.003643
 20
810.721251
 42
0.072503
  0
VERTEX
  8
0
 10
1047.731464
 20
813.765250
 42
0.061852
  0
VERTEX
  8
0
 10
1048.692305
 20
817.560372
 42
0.031115
  0
VERTEX
  8
0
 10
1049.000000
 20
822.500000
 42
0.056564
  0
VERTEX
  8
0
 10
1048.184557
 20
829.685107
 42
0.111322
  0
VERTEX
  8
0
 10
1045.708397
 20
834.840795
 42
0.131066
  0
VERTEX
  8
0
 10
1041.585950
 20
837.914453
 42
0.095294
  0
VERTEX
  8
0
 10
1035.941867
 20
839.000000
 42
0.026337
  0
VERTEX
  8
0
 10
1033.440871
 20
838.868171
 42
0.053217
  0
VERTEX
  8
0
 10
1031.514314
 20
838.454202
 42
0.057981
  0
VERTEX
  8
0
 10
1029.826041
 20
837.672097
 42
0.037480
  0
VERTEX
  8
0
 10
1028.076725
 20
836.411106
 42
0.000000
  0
VERTEX
  8
0
 10
1025.000000
 20
833.822213
 42
0.000000
  0
VERTEX
  8
0
 10
1025.000000
 20
843.411106
 42
0.004092
  0
VERTEX
  8
0
 10
1024.952049
 20
849.270698
 42
0.047350
  0
VERTEX
  8
0
 10
1024.697856
 20
851.551388
 42
0.163547
  0
VERTEX
  8
0
 10
1024.088073
 20
852.592480
 42
0.181123
  0
VERTEX
  8
0
 10
1023.000000
 20
853.000000
 42
0.307340
  0
VERTEX
  8
0
 10
1021.836465
 20
852.210196
 42
0.073428
  0
VERTEX
  8
0
 10
1021.271277
 20
849.812500
 42
0.019955
  0
VERTEX
  8
0
 10
1021.038556
 20
844.644071
 42
0.001273
  0
SEQEND
  0
POLYLINE
  8
0
 66
1
 70
1
  0
VERTEX
  8
0
 10
1039.455198
 20
834.378819
 42
-0.238303
  0
VERTEX
  8
0
 10
1042.876431
 20
830.605571
 42
-0.067258
  0
VERTEX
  8
0
 10
1043.971721
 20
822.500000
 42
-0.067258
  0
VERTEX
  8
0
 10
1042.876431
 20
814.394429
 42
-0.238303
  0
VERTEX
  8
0
 10
1039.455198
 20
810.621181
 42
-0.071983
  0
VERTEX
  8
0
 10
1036.908604
 20
810.044517
 42
-0.047448
  0
VERTEX
  8
0
 10
1033.901176
 20
810.092195
 42
-0.048294
  0
VERTEX
  8
0
 10
1031.056118
 20
810.690241
 42
-0.094519
  0
VERTEX
  8
0
 10
1029.022675
 20
811.780555
 42
-0.162512
  0
VERTEX
  8
0
 10
1026.458280
 20
815.799648
 42
-0.061425
  0
VERTEX
  8
0
 10
1025.630035
 20
822.497866
 42
-0.061429
  0
VERTEX
  8
0
 10
1026.453793
 20
829.195814
 42
-0.162678
  0
VERTEX
  8
0
 10
1029.015589
 20
833.213706
 42
-0.094304
  0
VERTEX
  8
0
 10
1031.052614
 20
834.307063
 42
-0.048391
  0
VERTEX
  8
0
 10
1033.898598
 20
834.907271
 42
-0.047542
  0
VERTEX
  8
0
 10
1036.906626
 20
834.955805
 42
-0.072006
  0
SEQEND
  0
POLYLINE
  8
0
 66
1
 70
1
  0
VERTEX
  8
0
 10
1116.000000
 20
843.411106
 42
0.000000
  0
VERTEX
  8
0
 10
1116.000000
 20
833.822213
 42
0.000000
  0
VERTEX
  8
0
 10
1112.796197
 20
836.518036
 42
0.031199
  0
VERTEX
  8
0
 10
1110.845237
 20
837.961923
 42
0.078827
  0
VERTEX
  8
0
 10
1109.235735
 20
838.675712
 42
0.067427
  0
VERTEX
  8
0
 10
1107.337203
 20
838.915128
 42
0.018385
  0
VERTEX
  8
0
 10
1104.311694
 20
838.775942
 42
0.084357
  0
VERTEX
  8
0
 10
1098.827332
 20
837.369397
 42
0.126625
  0
VERTEX
  8
0
 10
1094.978137
 20
834.311833
 42
0.109535
  0
VERTEX
  8
0
 10
1092.732100
 20
829.406781
 42
0.052851
  0
VERTEX
  8
0
 10
1092.000000
 20
822.500000
 42
0.058915
  0
VERTEX
  8
0
 10
1092.836788
 20
815.423052
 42
0.108950
  0
VERTEX
  8
0
 10
1095.355863
 20
810.240403
 42
0.127556
  0
VERTEX
  8
0
 10
1099.494526
 20
807.109960
 42
0.098779
  0
VERTEX
  8
0
 10
1105.058133
 20
806.000000
 42
0.026208
  0
VERTEX
  8
0
 10
1107.542399
 20
806.130305
 42
0.052257
  0
VERTEX
  8
0
 10
1109.466070
 20
806.538767
 42
0.057491
  0
VERTEX
  8
0
 10
1111.142568
 20
807.304607
 42
0.039057
  0
VERTEX
  8
0
 10
1112.850139
 20
808.527354
 42
0.000000
  0
VERTEX
  8
0
 10
1115.853729
 20
811.054708
 42
0.000000
  0
VERTEX
  8
0
 10
1116.176864
 20
808.777354
 42
0.069652
  0
VERTEX
  8
0
 10
1116.462595
 20
807.783806
 42
0.090670
  0
VERTEX
  8
0
 10
1116.996036
 20
807.004001
 42
0.091220
  0
VERTEX
  8
0
 10
1117.768064
 20
806.466642
 42
0.071382
  0
VERTEX
  8
0
 10
1118.750000
 20
806.180449
 42
0.000000
  0
VERTEX
  8
0
 10
1121.000000
 20
805.860898
 42
0.000000
  0
VERTEX
  8
0
 10
1121.000000
 20
829.430449
 42
0.000000
  0
VERTEX
  8
0
 10
1121.000000
 20
853.000000
 42
0.000000
  0
VERTEX
  8
0
 10
1118.500000
 20
853.000000
 42
0.110619
  0
VERTEX
  8
0
 10
1117.048421
 20
852.674878
 42
0.222326
  0
VERTEX
  8
0
 10
1116.315180
 20
851.791111
 42
0.060475
  0
VERTEX
  8
0
 10
1116.042738
 20
849.773759
 42
0.003358
  0
SEQEND
  0
POLYLINE
  8
0
 66
1
 70
1
  0
VERTEX
  8
0
 10
1112.430447
 20
832.660462
 42
-0.129046
  0
VERTEX
  8
0
 10
1115.007421
 20
828.249382
 42
-0.069973
  0
VERTEX
  8
0
 10
1115.841863
 20
821.980614
 42
-0.071332
  0
VERTEX
  8
0
 10
1114.921428
 20
815.882493
 42
-0.154218
  0
VERTEX
  8
0
 10
1112.277914
 20
812.003967
 42
-0.091408
  0
VERTEX
  8
0
 10
1109.271116
 20
810.422482
 42
-0.087356
  0
VERTEX
  8
0
 10
1105.848673
 20
809.983293
 42
-0.089656
  0
VERTEX
  8
0
 10
1102.557879
 20
810.738119
 42
-0.103441
  0
VERTEX
  8
0
 10
1099.924314
 20
812.580564
 42
-0.051417
  0
VERTEX
  8
0
 10
1098.632518
 20
814.274748
 42
-0.077405
  0
VERTEX
  8
0
 10
1097.920492
 20
815.986446
 42
-0.049525
  0
VERTEX
  8
0
 10
1097.586848
 20
818.341548
 42
-0.010441
  0
VERTEX
  8
0
 10
1097.500000
 20
822.500000
 42
-0.010441
  0
VERTEX
  8
0
 10
1097.586848
 20
826.658452
 42
-0.049525
  0
VERTEX
  8
0
 10
1097.920492
 20
829.013554
 42
-0.077405
  0
VERTEX
  8
0
 10
1098.632518
 20
830.725252
 42
-0.051417
  0
VERTEX
  8
0
 10
1099.924314
 20
832.419436
 42
-0.104732
  0
VERTEX
  8
0
 10
1102.712924
 20
834.359762
 42
-0.095269
  0
VERTEX
  8
0
 10
1106.146382
 20
835.088834
 42
-0.095584
  0
VERTEX
  8
0
 10
1109.595773
 20
834.492040
 42
-0.106270
  0
SEQEND
  0
POLYLINE
  8
0
 66
1
 70
1
  0
VERTEX
  8
0
 10
180.762571
 20
848.434612
 42
0.124929
  0
VERTEX
  8
0
 10
177.373059
 20
845.304003
 42
0.080430
  0
VERTEX
  8
0
 10
175.200172
 20
840.385567
 42
0.075798
  0
VERTEX
  8
0
 10
174.608152
 20
834.723419
 42
0.087736
  0
VERTEX
  8
0
 10
175.801439
 20
829.440571
 42
0.140151
  0
VERTEX
  8
0
 10
179.033850
 20
825.407683
 42
0.107011
  0
VERTEX
  8
0
 10
184.260621
 20
823.176640
 42
0.102996
  0
VERTEX
  8
0
 10
190.116503
 20
823.264731
 42
0.120375
  0
VERTEX
  8
0
 10
195.087378
 20
825.726978
 42
0.000000
  0
VERTEX
  8
0
 10
198.328207
 20
828.453955
 42
0.000000
  0
VERTEX
  8
0
 10
197.635500
 20
824.122005
 42
-0.061285
  0
VERTEX
  8
0
 10
195.855702
 20
817.955376
 42
-0.102468
  0
VERTEX
  8
0
 10
192.785088
 20
813.539675
 42
-0.110394
  0
VERTEX
  8
0
 10
188.396794
 20
810.914846
 42
-0.079760
  0
VERTEX
  8
0
 10
182.750000
 20
810.003738
 42
0.012680
  0
VERTEX
  8
0
 10
180.106672
 20
809.934611
 42
0.087141
  0
VERTEX
  8
0
 10
178.844217
 20
809.645204
 42
0.188929
  0
VERTEX
  8
0
 10
178.224446
 20
809.041042
 42
0.106574
  0
VERTEX
  8
0
 10
178.000000
 20
808.000000
 42
0.110969
  0
VERTEX
  8
0
 10
178.235175
 20
806.953403
 42
0.189839
  0
VERTEX
  8
0
 10
178.879015
 20
806.349362
 42
0.083342
  0
VERTEX
  8
0
 10
180.201566
 20
806.064697
 42
0.011427
  0
VERTEX
  8
0
 10
183.032119
 20
806.000000
 42
0.085699
  0
VERTEX
  8
0
 10
191.611864
 20
807.481424
 42
0.138395
  0
VERTEX
  8
0
 10
197.615915
 20
811.740644
 42
0.116527
  0
VERTEX
  8
0
 10
201.155491
 20
819.129406
 42
0.050849
  0
VERTEX
  8
0
 10
202.390553
 20
830.000000
 42
0.007732
  0
VERTEX
  8
0
 10
202.369128
 20
835.434059
 42
0.036905
  0
VERTEX
  8
0
 10
202.080541
 20
838.522097
 42
0.057533
  0
VERTEX
  8
0
 10
201.408205
 20
840.843601
 42
0.039872
  0
VERTEX
  8
0
 10
200.153457
 20
843.274244
 42
0.031612
  0
VERTEX
  8
0
 10
199.045908
 20
844.827456
 42
0.024505
  0
VERTEX
  8
0
 10
197.657908
 20
846.373308
 42
0.025066
  0
VERTEX
  8
0
 10
196.214430
 20
847.691407
 42
0.053214
  0
VERTEX
  8
0
 10
194.953117
 20
848.524244
 42
0.076966
  0
VERTEX
  8
0
 10
191.814542
 20
849.576959
 42
0.044105
  0
VERTEX
  8
0
 10
187.825251
 20
849.904161
 42
0.044159
  0
VERTEX
  8
0
 10
183.851412
 20
849.527206
 42
0.078738
  0
SEQEND
  0
POLYLINE
  8
0
 66
1
 70
1
  0
VERTEX
  8
0
 10
193.150400
 20
844.919509
 42
-0.116336
  0
VERTEX
  8
0
 10
194.790528
 20
843.472194
 42
-0.040820
  0
VERTEX
  8
0
 10
196.401666
 20
840.750842
 42
-0.040870
  0
VERTEX
  8
0
 10
197.606048
 20
837.657187
 42
-0.072517
  0
VERTEX
  8
0
 10
198.000000
 20
834.955196
 42
-0.147336
  0
VERTEX
  8
0
 10
197.202557
 20
832.307745
 42
-0.072113
  0
VERTEX
  8
0
 10
194.832957
 20
829.655172
 42
-0.069308
  0
VERTEX
  8
0
 10
191.669042
 20
827.674588
 42
-0.105619
  0
VERTEX
  8
0
 10
188.511182
 20
827.000000
 42
-0.041602
  0
VERTEX
  8
0
 10
185.334475
 20
827.264775
 42
-0.090544
  0
VERTEX
  8
0
 10
183.042207
 20
828.093497
 42
-0.101279
  0
VERTEX
  8
0
 10
181.350054
 20
829.605931
 42
-0.061792
  0
VERTEX
  8
0
 10
180.022733
 20
831.945118
 42
-0.145360
  0
VERTEX
  8
0
 10
179.388236
 20
838.023952
 42
-0.152817
  0
VERTEX
  8
0
 10
182.202656
 20
843.326171
 42
-0.160045
  0
VERTEX
  8
0
 10
187.416881
 20
845.923390
 42
-0.160386
  0
SEQEND
  0
POLYLINE
  8
0
 66
1
 70
1
  0
VERTEX
  8
0
 10
214.250000
 20
847.951196
 42
0.014959
  0
VERTEX
  8
0
 10
211.367310
 20
846.375748
 42
0.122469
  0
VERTEX
  8
0
 10
210.303214
 20
845.336037
 42
0.278336
  0
VERTEX
  8
0
 10
210.292998
 20
844.347455
 42
0.086584
  0
VERTEX
  8
0
 10
211.296451
 20
843.168930
 42
0.116643
  0
VERTEX
  8
0
 10
212.073794
 20
842.783324
 42
0.108014
  0
VERTEX
  8
0
 10
212.964963
 20
842.771685
 42
0.070980
  0
VERTEX
  8
0
 10
214.073816
 20
843.168745
 42
0.024311
  0
VERTEX
  8
0
 10
215.546451
 20
844.039896
 42
-0.081151
  0
VERTEX
  8
0
 10
218.805120
 20
845.498470
 42
-0.066310
  0
VERTEX
  8
0
 10
222.598527
 20
845.980840
 42
-0.069699
  0
VERTEX
  8
0
 10
226.180852
 20
845.457304
 42
-0.116963
  0
VERTEX
  8
0
 10
228.811439
 20
843.961045
 42
-0.120819
  0
VERTEX
  8
0
 10
230.378770
 20
841.570353
 42
-0.079385
  0
VERTEX
  8
0
 10
230.975303
 20
838.317844
 42
-0.072292
  0
VERTEX
  8
0
 10
230.538480
 20
834.736710
 42
-0.070585
  0
VERTEX
  8
0
 10
229.099907
 20
831.396260
 42
-0.036650
  0
VERTEX
  8
0
 10
227.855221
 20
829.655919
 42
-0.005596
  0
VERTEX
  8
0
 10
225.089050
 20
826.406987
 42
-0.006234
  0
VERTEX
  8
0
 10
221.727850
 20
822.643330
 42
-0.005368
  0
VERTEX
  8
0
 10
218.103645
 20
818.769942
 42
0.007934
  0
VERTEX
  8
0
 10
214.615568
 20
815.003473
 42
0.011577
  0
VERTEX
  8
0
 10
211.674196
 20
811.567664
 42
0.007194
  0
VERTEX
  8
0
 10
209.340973
 20
808.625530
 42
0.165510
  0
VERTEX
  8
0
 10
209.000000
 20
807.623682
 42
0.308115
  0
VERTEX
  8
0
 10
209.597541
 20
806.746064
 42
0.066032
  0
VERTEX
  8
0
 10
211.482580
 20
806.277995
 42
0.024952
  0
VERTEX
  8
0
 10
215.199633
 20
806.048662
 42
0.002931
  0
VERTEX
  8
0
 10
223.500000
 20
806.000000
 42
0.002322
  0
VERTEX
  8
0
 10
232.635485
 20
806.042421
 42
0.031956
  0
VERTEX
  8
0
 10
235.937500
 20
806.284483
 42
0.123223
  0
VERTEX
  8
0
 10
237.431338
 20
806.885087
 42
0.240299
  0
VERTEX
  8
0
 10
238.000000
 20
808.000000
 42
0.200111
  0
VERTEX
  8
0
 10
237.543078
 20
809.095955
 42
0.151374
  0
VERTEX
  8
0
 10
236.375000
 20
809.704545
 42
0.041619
  0
VERTEX
  8
0
 10
233.800382
 20
809.954193
 42
0.003368
  0
VERTEX
  8
0
 10
227.000000
 20
810.000000
 42
-0.004808
  0
VERTEX
  8
0
 10
222.782145
 20
810.040560
 42
-0.008005
  0
VERTEX
  8
0
 10
219.231250
 20
810.165749
 42
-0.002556
  0
VERTEX
  8
0
 10
216.214682
 20
810.335951
 42
-0.396321
  0
VERTEX
  8
0
 10
216.000000
 20
810.564253
 42
-0.187812
  0
VERTEX
  8
0
 10
216.146404
 20
810.940267
 42
-0.001487
  0
VERTEX
  8
0
 10
218.374136
 20
813.352897
 42
-0.005130
  0
VERTEX
  8
0
 10
220.984070
 20
816.105450
 42
-0.003243
  0
VERTEX
  8
0
 10
224.082167
 20
819.265152
 42
0.015546
  0
VERTEX
  8
0
 10
229.920694
 20
825.520459
 42
0.043861
  0
VERTEX
  8
0
 10
233.450865
 20
830.339923
 42
0.062280
  0
VERTEX
  8
0
 10
235.352361
 20
834.596414
 42
0.074067
  0
VERTEX
  8
0
 10
236.000000
 20
838.944385
 42
0.037097
  0
VERTEX
  8
0
 10
235.844657
 20
841.035233
 42
0.057068
  0
VERTEX
  8
0
 10
235.374598
 20
842.785774
 42
0.055459
  0
VERTEX
  8
0
 10
234.509021
 20
844.419756
 42
0.032826
  0
VERTEX
  8
0
 10
233.148650
 20
846.159661
 42
0.034785
  0
VERTEX
  8
0
 10
231.369456
 20
847.891956
 42
0.078906
  0
VERTEX
  8
0
 10
229.768157
 20
848.862771
 42
0.063945
  0
VERTEX
  8
0
 10
227.740368
 20
849.401799
 42
0.016931
  0
VERTEX
  8
0
 10
224.398650
 20
849.731136
 42
0.019376
  0
VERTEX
  8
0
 10
221.272156
 20
849.811284
 42
0.040147
  0
VERTEX
  8
0
 10
218.842415
 20
849.583759
 42
0.044420
  0
VERTEX
  8
0
 10
216.641132
 20
848.992501
 42
0.029775
  0
SEQEND
  0
POLYLINE
  8
0
 66
1
 70
1
  0
VERTEX
  8
0
 10
323.762571
 20
848.434612
 42
0.124929
  0
VERTEX
  8
0
 10
320.373059
 20
845.304003
 42
0.080430
  0
VERTEX
  8
0
 10
318.200172
 20
840.385567
 42
0.075798
  0
VERTEX
  8
0
 10
317.608152
 20
834.723419
 42
0.087736
  0
VERTEX
  8
0
 10
318.801439
 20
829.440571
 42
0.140151
  0
VERTEX
  8
0
 10
322.033850
 20
825.407683
 42
0.107011
  0
VERTEX
  8
0
 10
327.260621
 20
823.176640
 42
0.102996
  0
VERTEX
  8
0
 10
333.116503
 20
823.264731
 42
0.120375
  0
VERTEX
  8
0
 10
338.087378
 20
825.726978
 42
0.000000
  0
VERTEX
  8
0
 10
341.328207
 20
828.453955
 42
0.000000
  0
VERTEX
  8
0
 10
340.635500
 20
824.122005
 42
-0.061285
  0
VERTEX
  8
0
 10
338.855702
 20
817.955376
 42
-0.102468
  0
VERTEX
  8
0
 10
335.785088
 20
813.539675
 42
-0.110394
  0
VERTEX
  8
0
 10
331.396794
 20
810.914846
 42
-0.079760
  0
VERTEX
  8
0
 10
325.750000
 20
810.003738
 42
0.012680
  0
VERTEX
  8
0
 10
323.106672
 20
809.934611
 42
0.087141
  0
VERTEX
  8
0
 10
321.844217
 20
809.645204
 42
0.188929
  0
VERTEX
  8
0
 10
321.224446
 20
809.041042
 42
0.106574
  0
VERTEX
  8
0
 10
321.000000
 20
808.000000
 42
0.110969
  0
VERTEX
  8
0
 10
321.235175
 20
806.953403
 42
0.189839
  0
VERTEX
  8
0
 10
321.879015
 20
806.349362
 42
0.083342
  0
VERTEX
  8
0
 10
323.201566
 20
806.064697
 42
0.011427
  0
VERTEX
  8
0
 10
326.032119
 20
806.000000
 42
0.085699
  0
VERTEX
  8
0
 10
334.611864
 20
807.481424
 42
0.138395
  0
VERTEX
  8
0
 10
340.615915
 20
811.740644
 42
0.116527
  0
VERTEX
  8
0
 10
344.155491
 20
819.129406
 42
0.050849
  0
VERTEX
  8
0
 10
345.390553
 20
830.000000
 42
0.007732
  0
VERTEX
  8
0
 10
345.369128
 20
835.434059
 42
0.036905
  0
VERTEX
  8
0
 10
345.080541
 20
838.522097
 42
0.057533
  0
VERTEX
  8
0
 10
344.408205
 20
840.843601
 42
0.039872
  0
VERTEX
  8
0
 10
343.153457
 20
843.274244
 42
0.031612
  0
VERTEX
  8
0
 10
342.045908
 20
844.827456
 42
0.024505
  0
VERTEX
  8
0
 10
340.657908
 20
846.373308
 42
0.025066
  0
VERTEX
  8
0
 10
339.214430
 20
847.691407
 42
0.053214
  0
VERTEX
  8
0
 10
337.953117
 20
848.524244
 42
0.076966
  0
VERTEX
  8
0
 10
334.814542
 20
849.576959
 42
0.044105
  0
VERTEX
  8
0
 10
330.825251
 20
849.904161
 42
0.044159
  0
VERTEX
  8
0
 10
326.851412
 20
849.527206
 42
0.078738
  0
SEQEND
  0
POLYLINE
  8
0
 66
1
 70
1
  0
VERTEX
  8
0
 10
336.150400
 20
844.919509
 42
-0.116336
  0
VERTEX
  8
0
 10
337.790528
 20
843.472194
 42
-0.040820
  0
VERTEX
  8
0
 10
339.401666
 20
840.750842
 42
-0.040870
  0
VERTEX
  8
0
 10
340.606048
 20
837.657187
 42
-0.072517
  0
VERTEX
  8
0
 10
341.000000
 20
834.955196
 42
-0.147336
  0
VERTEX
  8
0
 10
340.202557
 20
832.307745
 42
-0.072113
  0
VERTEX
  8
0
 10
337.832957
 20
829.655172
 42
-0.069308
  0
VERTEX
  8
0
 10
334.669042
 20
827.674588
 42
-0.105619
  0
VERTEX
  8
0
 10
331.511182
 20
827.000000
 42
-0.041602
  0
VERTEX
  8
0
 10
328.334475
 20
827.264775
 42
-0.090544
  0
VERTEX
  8
0
 10
326.042207
 20
828.093497
 42
-0.101279
  0
VERTEX
  8
0
 10
324.350054
 20
829.605931
 42
-0.061792
  0
VERTEX
  8
0
 10
323.022733
 20
831.945118
 42
-0.145360
  0
VERTEX
  8
0
 10
322.388236
 20
838.023952
 42
-0.152817
  0
VERTEX
  8
0
 10
325.202656
 20
843.326171
 42
-0.160045
  0
VERTEX
  8
0
 10
330.416881
 20
845.923390
 42
-0.160386
  0
SEQEND
  0
POLYLINE
  8
0
 66
1
 70
1
  0
VERTEX
  8
0
 10
362.502836
 20
847.703325
 42
0.041068
  0
VERTEX
  8
0
 10
360.690139
 20
846.470109
 42
0.030899
  0
VERTEX
  8
0
 10
358.910885
 20
844.841358
 42
0.030255
  0
VERTEX
  8
0
 10
357.303038
 20
842.960343
 42
0.034094
  0
VERTEX
  8
0
 10
356.002836
 20
840.969776
 42
0.033338
  0
VERTEX
  8
0
 10
354.642540
 20
838.108557
 42
0.052920
  0
VERTEX
  8
0
 10
353.916015
 20
835.497673
 42
0.034456
  0
VERTEX
  8
0
 10
353.584892
 20
832.086836
 42
0.006973
  0
VERTEX
  8
0
 10
353.500000
 20
826.000000
 42
0.006130
  0
VERTEX
  8
0
 10
353.574914
 20
819.889799
 42
0.035785
  0
VERTEX
  8
0
 10
353.883189
 20
816.690438
 42
0.063344
  0
VERTEX
  8
0
 10
354.563562
 20
814.444246
 42
0.049774
  0
VERTEX
  8
0
 10
355.828838
 20
812.234911
 42
0.056272
  0
VERTEX
  8
0
 10
358.527704
 20
809.231206
 42
0.076951
  0
VERTEX
  8
0
 10
361.579248
 20
807.263280
 42
0.075889
  0
VERTEX
  8
0
 10
365.116591
 20
806.293083
 42
0.053048
  0
VERTEX
  8
0
 10
369.258507
 20
806.250817
 42
0.071831
  0
VERTEX
  8
0
 10
373.851831
 20
807.371034
 42
0.102135
  0
VERTEX
  8
0
 10
377.342155
 20
809.688794
 42
0.101521
  0
VERTEX
  8
0
 10
379.643303
 20
813.211139
 42
0.070252
  0
VERTEX
  8
0
 10
380.759884
 20
817.852868
 42
0.025250
  0
VERTEX
  8
0
 10
380.955417
 20
822.165874
 42
0.063332
  0
VERTEX
  8
0
 10
380.542686
 20
825.282099
 42
0.077350
  0
VERTEX
  8
0
 10
379.434852
 20
827.813210
 42
0.054664
  0
VERTEX
  8
0
 10
377.489395
 20
830.237878
 42
0.116370
  0
VERTEX
  8
0
 10
373.342269
 20
832.801663
 42
0.088189
  0
VERTEX
  8
0
 10
368.032629
 20
833.582859
 42
0.091705
  0
VERTEX
  8
0
 10
362.966366
 20
832.488494
 42
0.141978
  0
VERTEX
  8
0
 10
359.503101
 20
829.700965
 42
-0.007812
  0
VERTEX
  8
0
 10
358.498646
 20
828.313551
 42
-0.405542
  0
VERTEX
  8
0
 10
358.199811
 20
828.265943
 42
-0.239753
  0
VERTEX
  8
0
 10
358.018254
 20
828.608296
 42
-0.004247
  0
VERTEX
  8
0
 10
358.000000
 20
830.757257
 42
-0.084339
  0
VERTEX
  8
0
 10
359.051542
 20
836.946946
 42
-0.109534
  0
VERTEX
  8
0
 10
362.073562
 20
841.823775
 42
-0.111182
  0
VERTEX
  8
0
 10
366.833240
 20
844.917644
 42
-0.088967
  0
VERTEX
  8
0
 10
372.868034
 20
846.000000
 42
0.011039
  0
VERTEX
  8
0
 10
375.764598
 20
846.063960
 42
0.082046
  0
VERTEX
  8
0
 10
377.108504
 20
846.347429
 42
0.189945
  0
VERTEX
  8
0
 10
377.760966
 20
846.951646
 42
0.112560
  0
VERTEX
  8
0
 10
378.000000
 20
848.000000
 42
0.122191
  0
VERTEX
  8
0
 10
377.737601
 20
849.057695
 42
0.190314
  0
VERTEX
  8
0
 10
377.033306
 20
849.660993
 42
0.074871
  0
VERTEX
  8
0
 10
375.559947
 20
849.933241
 42
0.009030
  0
VERTEX
  8
0
 10
372.250000
 20
849.983550
 42
0.022431
  0
VERTEX
  8
0
 10
369.371835
 20
849.846115
 42
0.034323
  0
VERTEX
  8
0
 10
366.906960
 20
849.445334
 42
0.037240
  0
VERTEX
  8
0
 10
364.674556
 20
848.744362
 42
0.034166
  0
SEQEND
  0
POLYLINE
  8
0
 66
1
 70
1
  0
VERTEX
  8
0
 10
374.250000
 20
826.919630
 42
-0.119037
  0
VERTEX
  8
0
 10
375.744566
 20
823.811703
 42
-0.065079
  0
VERTEX
  8
0
 10
376.089939
 20
819.573326
 42
-0.065115
  0
VERTEX
  8
0
 10
375.334599
 20
815.391925
 42
-0.119726
  0
VERTEX
  8
0
 10
373.545455
 20
812.454545
 42
-0.145539
  0
VERTEX
  8
0
 10
369.069339
 20
810.030409
 42
-0.158554
  0
VERTEX
  8
0
 10
364.162194
 20
810.558432
 42
-0.144460
  0
VERTEX
  8
0
 10
360.178249
 20
813.973171
 42
-0.116271
  0
VERTEX
  8
0
 10
358.268808
 20
819.307498
 42
-0.054216
  0
VERTEX
  8
0
 10
358.255411
 20
822.729234
 42
-0.096844
  0
VERTEX
  8
0
 10
359.077161
 20
825.409472
 42
-0.102341
  0
VERTEX
  8
0
 10
360.806857
 20
827.485877
 42
-0.066096
  0
VERTEX
  8
0
 10
363.500000
 20
829.101208
 42
-0.095593
  0
VERTEX
  8
0
 10
366.120355
 20
829.680742
 42
-0.056880
  0
VERTEX
  8
0
 10
369.315046
 20
829.403447
 42
-0.057645
  0
VERTEX
  8
0
 10
372.294348
 20
828.431384
 42
-0.114256
  0
SEQEND
  0
POLYLINE
  8
0
 66
1
 70
1
  0
VERTEX
  8
0
 10
429.750000
 20
848.341518
 42
0.045754
  0
VERTEX
  8
0
 10
427.522260
 20
847.168598
 42
0.114429
  0
VERTEX
  8
0
 10
426.254427
 20
845.852855
 42
0.209345
  0
VERTEX
  8
0
 10
426.096686
 20
844.610156
 42
0.184748
  0
VERTEX
  8
0
 10
426.893766
 20
843.565656
 42
0.165640
  0
VERTEX
  8
0
 10
427.450226
 20
843.438136
 42
0.026144
  0
VERTEX
  8
0
 10
428.574885
 20
843.614214
 42
0.026613
  0
VERTEX
  8
0
 10
429.927651
 20
843.975225
 42
0.020446
  0
VERTEX
  8
0
 10
431.361647
 20
844.506639
 42
-0.069180
  0
VERTEX
  8
0
 10
437.109059
 20
846.021053
 42
-0.106020
  0
VERTEX
  8
0
 10
442.219055
 20
845.550877
 42
-0.143423
  0
VERTEX
  8
0
 10
445.680509
 20
843.243714
 42
-0.176289
  0
VERTEX
  8
0
 10
447.000000
 20
839.617610
 42
-0.104466
  0
VERTEX
  8
0
 10
446.340381
 20
836.494958
 42
-0.114203
  0
VERTEX
  8
0
 10
444.483105
 20
834.020001
 42
-0.094071
  0
VERTEX
  8
0
 10
441.397245
 20
832.285745
 42
-0.051679
  0
VERTEX
  8
0
 10
437.154929
 20
831.331943
 42
0.014614
  0
VERTEX
  8
0
 10
434.563034
 20
830.947870
 42
0.062973
  0
VERTEX
  8
0
 10
433.078123
 20
830.485087
 42
0.125176
  0
VERTEX
  8
0
 10
432.291225
 20
829.852708
 42
0.162607
  0
VERTEX
  8
0
 10
432.000000
 20
828.980900
 42
0.174781
  0
VERTEX
  8
0
 10
432.319279
 20
828.095433
 42
0.133117
  0
VERTEX
  8
0
 10
433.168378
 20
827.496930
 42
0.058528
  0
VERTEX
  8
0
 10
434.828530
 20
827.104038
 42
0.010814
  0
VERTEX
  8
0
 10
437.962526
 20
826.809092
 42
-0.038280
  0
VERTEX
  8
0
 10
442.748751
 20
826.091938
 42
-0.110107
  0
VERTEX
  8
0
 10
445.762576
 20
824.656173
 42
-0.143367
  0
VERTEX
  8
0
 10
447.423899
 20
822.339342
 42
-0.084524
  0
VERTEX
  8
0
 10
448.000000
 20
818.955796
 42
-0.040541
  0
VERTEX
  8
0
 10
447.865439
 20
817.298964
 42
-0.035432
  0
VERTEX
  8
0
 10
447.464049
 20
815.606870
 42
-0.036690
  0
VERTEX
  8
0
 10
446.853040
 20
814.064093
 42
-0.057542
  0
VERTEX
  8
0
 10
446.089552
 20
812.860784
 42
-0.063794
  0
VERTEX
  8
0
 10
444.772511
 20
811.601385
 42
-0.093357
  0
VERTEX
  8
0
 10
443.331595
 20
810.906339
 42
-0.055448
  0
VERTEX
  8
0
 10
441.226445
 20
810.582829
 42
-0.010516
  0
VERTEX
  8
0
 10
437.339552
 20
810.502479
 42
-0.011392
  0
VERTEX
  8
0
 10
434.512970
 20
810.567913
 42
-0.011196
  0
VERTEX
  8
0
 10
431.675866
 20
810.762045
 42
-0.011136
  0
VERTEX
  8
0
 10
429.198286
 20
811.043163
 42
-0.041226
  0
VERTEX
  8
0
 10
427.663394
 20
811.382624
 42
0.015301
  0
VERTEX
  8
0
 10
425.965106
 20
811.851663
 42
0.194364
  0
VERTEX
  8
0
 10
425.322490
 20
811.757776
 42
0.273316
  0
VERTEX
  8
0
 10
425.049754
 20
811.268101
 42
0.029384
  0
VERTEX
  8
0
 10
425.163394
 20
809.921139
 42
0.159998
  0
VERTEX
  8
0
 10
426.040851
 20
808.151109
 42
0.119869
  0
VERTEX
  8
0
 10
427.902688
 20
806.997625
 42
0.060975
  0
VERTEX
  8
0
 10
431.200196
 20
806.348852
 42
0.014193
  0
VERTEX
  8
0
 10
436.848871
 20
806.099680
 42
0.054165
  0
VERTEX
  8
0
 10
444.050376
 20
806.767909
 42
0.112372
  0
VERTEX
  8
0
 10
449.166144
 20
809.080481
 42
0.133442
  0
VERTEX
  8
0
 10
452.237007
 20
813.060867
 42
0.092995
  0
VERTEX
  8
0
 10
453.405575
 20
818.643407
 42
0.026235
  0
VERTEX
  8
0
 10
453.324846
 20
821.199770
 42
0.079919
  0
VERTEX
  8
0
 10
452.907240
 20
822.880553
 42
0.081636
  0
VERTEX
  8
0
 10
451.989172
 20
824.325752
 42
0.028168
  0
VERTEX
  8
0
 10
450.234223
 20
826.081497
 42
0.029151
  0
VERTEX
  8
0
 10
448.819750
 20
827.204465
 42
0.028351
  0
VERTEX
  8
0
 10
447.271466
 20
828.166652
 42
0.029557
  0
VERTEX
  8
0
 10
445.815991
 20
828.852326
 42
0.086381
  0
VERTEX
  8
0
 10
444.734223
 20
829.081574
 42
-0.020013
  0
VERTEX
  8
0
 10
443.576522
 20
829.170330
 42
-0.553563
  0
VERTEX
  8
0
 10
443.468692
 20
829.397540
 42
-0.143377
  0
VERTEX
  8
0
 10
443.854165
 20
829.734227
 42
-0.005070
  0
VERTEX
  8
0
 10
445.673417
 20
830.553193
 42
0.061536
  0
VERTEX
  8
0
 10
448.380810
 20
832.160558
 42
0.078028
  0
VERTEX
  8
0
 10
450.374299
 20
834.273279
 42
0.080330
  0
VERTEX
  8
0
 10
451.584902
 20
836.842659
 42
0.070115
  0
VERTEX
  8
0
 10
452.000000
 20
839.788248
 42
0.047897
  0
VERTEX
  8
0
 10
451.714280
 20
842.764034
 42
0.082279
  0
VERTEX
  8
0
 10
450.848994
 20
845.093692
 42
0.086231
  0
VERTEX
  8
0
 10
449.313506
 20
846.947120
 42
0.057477
  0
VERTEX
  8
0
 10
447.020016
 20
848.489650
 42
0.084918
  0
VERTEX
  8
0
 10
443.591252
 20
849.579740
 42
0.036758
  0
VERTEX
  8
0
 10
438.796933
 20
849.891359
 42
0.036499
  0
VERTEX
  8
0
 10
433.819115
 20
849.484547
 42
0.059739
  0
SEQEND
  0
POLYLINE
  8
0
 66
1
 70
1
  0
VERTEX
  8
0
 10
463.549362
 20
844.250000
 42
-0.000249
  0
VERTEX
  8
0
 10
463.288672
 20
841.741051
 42
-0.000182
  0
VERTEX
  8
0
 10
462.996594
 20
838.953406
 42
-0.000184
  0
VERTEX
  8
0
 10
462.717788
 20
836.311075
 42
-0.000405
  0
VERTEX
  8
0
 10
462.502500
 20
834.293508
 42
0.022339
  0
VERTEX
  8
0
 10
462.387623
 20
832.456264
 42
0.043036
  0
VERTEX
  8
0
 10
462.488093
 20
830.986342
 42
0.056635
  0
VERTEX
  8
0
 10
462.782031
 20
829.913475
 42
0.159774
  0
VERTEX
  8
0
 10
463.275094
 20
829.325029
 42
0.111922
  0
VERTEX
  8
0
 10
464.091769
 20
829.042027
 42
0.012677
  0
VERTEX
  8
0
 10
466.053918
 20
828.874229
 42
0.014840
  0
VERTEX
  8
0
 10
468.430458
 20
828.802245
 42
0.011555
  0
VERTEX
  8
0
 10
471.014840
 20
828.860417
 42
-0.013119
  0
VERTEX
  8
0
 10
474.524251
 20
828.928434
 42
-0.045744
  0
VERTEX
  8
0
 10
476.776977
 20
828.706317
 42
-0.065631
  0
VERTEX
  8
0
 10
478.493292
 20
828.136061
 42
-0.053717
  0
VERTEX
  8
0
 10
480.133730
 20
827.109448
 42
-0.139815
  0
VERTEX
  8
0
 10
482.856585
 20
823.346998
 42
-0.119380
  0
VERTEX
  8
0
 10
483.400505
 20
818.466335
 42
-0.120461
  0
VERTEX
  8
0
 10
481.652581
 20
813.911433
 42
-0.143961
  0
VERTEX
  8
0
 10
478.087093
 20
811.036075
 42
-0.079521
  0
VERTEX
  8
0
 10
475.131343
 20
810.331551
 42
-0.026788
  0
VERTEX
  8
0
 10
470.688177
 20
810.235030
 42
-0.027284
  0
VERTEX
  8
0
 10
466.144164
 20
810.628603
 42
-0.058641
  0
VERTEX
  8
0
 10
462.750000
 20
811.524626
 42
0.056318
  0
VERTEX
  8
0
 10
461.895540
 20
811.754432
 42
0.213025
  0
VERTEX
  8
0
 10
461.374388
 20
811.610445
 42
0.182081
  0
VERTEX
  8
0
 10
461.082258
 20
811.101697
 42
0.040278
  0
VERTEX
  8
0
 10
461.000000
 20
810.082238
 42
0.191030
  0
VERTEX
  8
0
 10
461.704727
 20
808.305007
 42
0.112489
  0
VERTEX
  8
0
 10
463.628072
 20
807.012380
 42
0.067013
  0
VERTEX
  8
0
 10
466.887964
 20
806.235769
 42
0.025017
  0
VERTEX
  8
0
 10
471.597218
 20
806.000000
 42
0.036823
  0
VERTEX
  8
0
 10
476.168844
 20
806.337142
 42
0.054091
  0
VERTEX
  8
0
 10
480.064579
 20
807.353925
 42
0.061637
  0
VERTEX
  8
0
 10
483.252665
 20
809.040104
 42
0.073799
  0
VERTEX
  8
0
 10
485.719177
 20
811.370121
 42
0.104612
  0
VERTEX
  8
0
 10
488.104495
 20
816.208259
 42
0.096312
  0
VERTEX
  8
0
 10
488.423753
 20
821.749285
 42
0.098161
  0
VERTEX
  8
0
 10
486.651746
 20
826.919707
 42
0.113634
  0
VERTEX
  8
0
 10
483.102117
 20
830.713443
 42
0.040533
  0
VERTEX
  8
0
 10
481.092209
 20
831.841158
 42
0.050791
  0
VERTEX
  8
0
 10
479.070358
 20
832.530965
 42
0.040770
  0
VERTEX
  8
0
 10
476.622389
 20
832.890437
 42
0.016079
  0
VERTEX
  8
0
 10
473.216193
 20
833.000000
 42
0.000000
  0
VERTEX
  8
0
 10
466.728152
 20
833.000000
 42
0.000000
  0
VERTEX
  8
0
 10
467.364076
 20
837.639571
 42
0.004812
  0
VERTEX
  8
0
 10
467.607514
 20
839.552282
 42
0.004862
  0
VERTEX
  8
0
 10
467.813197
 20
841.462769
 42
0.004744
  0
VERTEX
  8
0
 10
467.960311
 20
843.129523
 42
0.019639
  0
VERTEX
  8
0
 10
468.000000
 20
844.139571
 42
-0.198137
  0
VERTEX
  8
0
 10
468.408261
 20
845.129376
 42
-0.147184
  0
VERTEX
  8
0
 10
469.459399
 20
845.698321
 42
-0.046193
  0
VERTEX
  8
0
 10
471.698680
 20
845.949095
 42
-0.004801
  0
VERTEX
  8
0
 10
477.000000
 20
846.000000
 42
0.004487
  0
VERTEX
  8
0
 10
482.467166
 20
846.049067
 42
0.050222
  0
VERTEX
  8
0
 10
484.625000
 20
846.305556
 42
0.168559
  0
VERTEX
  8
0
 10
485.613791
 20
846.915397
 42
0.172730
  0
VERTEX
  8
0
 10
486.000000
 20
848.000000
 42
0.199182
  0
VERTEX
  8
0
 10
485.545538
 20
849.095562
 42
0.151992
  0
VERTEX
  8
0
 10
484.383995
 20
849.704246
 42
0.041879
  0
VERTEX
  8
0
 10
481.824352
 20
849.954098
 42
0.003399
  0
VERTEX
  8
0
 10
475.071956
 20
850.000000
 42
0.000000
  0
VERTEX
  8
0
 10
464.143913
 20
850.000000
 42
0.000000
  0
SEQEND
  0
POLYLINE
  8
0
 66
1
 70
1
  0
VERTEX
  8
0
 10
500.250000
 20
847.951196
 42
0.014959
  0
VERTEX
  8
0
 10
497.367310
 20
846.375748
 42
0.122469
  0
VERTEX
  8
0
 10
496.303214
 20
845.336037
 42
0.278336
  0
VERTEX
  8
0
 10
496.292998
 20
844.347455
 42
0.086584
  0
VERTEX
  8
0
 10
497.296451
 20
843.168930
 42
0.116643
  0
VERTEX
  8
0
 10
498.073794
 20
842.783324
 42
0.108014
  0
VERTEX
  8
0
 10
498.964963
 20
842.771685
 42
0.070980
  0
VERTEX
  8
0
 10
500.073816
 20
843.168745
 42
0.024311
  0
VERTEX
  8
0
 10
501.546451
 20
844.039896
 42
-0.081151
  0
VERTEX
  8
0
 10
504.805120
 20
845.498470
 42
-0.066310
  0
VERTEX
  8
0
 10
508.598527
 20
845.980840
 42
-0.069699
  0
VERTEX
  8
0
 10
512.180852
 20
845.457304
 42
-0.116963
  0
VERTEX
  8
0
 10
514.811439
 20
843.961045
 42
-0.120819
  0
VERTEX
  8
0
 10
516.378770
 20
841.570353
 42
-0.079385
  0
VERTEX
  8
0
 10
516.975303
 20
838.317844
 42
-0.072292
  0
VERTEX
  8
0
 10
516.538480
 20
834.736710
 42
-0.070585
  0
VERTEX
  8
0
 10
515.099907
 20
831.396260
 42
-0.036650
  0
VERTEX
  8
0
 10
513.855221
 20
829.655919
 42
-0.005596
  0
VERTEX
  8
0
 10
511.089050
 20
826.406987
 42
-0.006234
  0
VERTEX
  8
0
 10
507.727850
 20
822.643330
 42
-0.005368
  0
VERTEX
  8
0
 10
504.103645
 20
818.769942
 42
0.007934
  0
VERTEX
  8
0
 10
500.615568
 20
815.003473
 42
0.011577
  0
VERTEX
  8
0
 10
497.674196
 20
811.567664
 42
0.007194
  0
VERTEX
  8
0
 10
495.340973
 20
808.625530
 42
0.165510
  0
VERTEX
  8
0
 10
495.000000
 20
807.623682
 42
0.308115
  0
VERTEX
  8
0
 10
495.597541
 20
806.746064
 42
0.066032
  0
VERTEX
  8
0
 10
497.482580
 20
806.277995
 42
0.024952
  0
VERTEX
  8
0
 10
501.199633
 20
806.048662
 42
0.002931
  0
VERTEX
  8
0
 10
509.500000
 20
806.000000
 42
0.002322
  0
VERTEX
  8
0
 10
518.635485
 20
806.042421
 42
0.031956
  0
VERTEX
  8
0
 10
521.937500
 20
806.284483
 42
0.123223
  0
VERTEX
  8
0
 10
523.431338
 20
806.885087
 42
0.240299
  0
VERTEX
  8
0
 10
524.000000
 20
808.000000
 42
0.200111
  0
VERTEX
  8
0
 10
523.543078
 20
809.095955
 42
0.151374
  0
VERTEX
  8
0
 10
522.375000
 20
809.704545
 42
0.041619
  0
VERTEX
  8
0
 10
519.800382
 20
809.954193
 42
0.003368
  0
VERTEX
  8
0
 10
513.000000
 20
810.000000
 42
-0.004808
  0
VERTEX
  8
0
 10
508.782145
 20
810.040560
 42
-0.008005
  0
VERTEX
  8
0
 10
505.231250
 20
810.165749
 42
-0.002556
  0
VERTEX
  8
0
 10
502.214682
 20
810.335951
 42
-0.396321
  0
VERTEX
  8
0
 10
502.000000
 20
810.564253
 42
-0.187812
  0
VERTEX
  8
0
 10
502.146404
 20
810.940267
 42
-0.001487
  0
VERTEX
  8
0
 10
504.374136
 20
813.352897
 42
-0.005130
  0
VERTEX
  8
0
 10
506.984070
 20
816.105450
 42
-0.003243
  0
VERTEX
  8
0
 10
510.082167
 20
819.265152
 42
0.015546
  0
VERTEX
  8
0
 10
515.920694
 20
825.520459
 42
0.043861
  0
VERTEX
  8
0
 10
519.450865
 20
830.339923
 42
0.062280
  0
VERTEX
  8
0
 10
521.352361
 20
834.596414
 42
0.074067
  0
VERTEX
  8
0
 10
522.000000
 20
838.944385
 42
0.037097
  0
VERTEX
  8
0
 10
521.844657
 20
841.035233
 42
0.057068
  0
VERTEX
  8
0
 10
521.374598
 20
842.785774
 42
0.055459
  0
VERTEX
  8
0
 10
520.509021
 20
844.419756
 42
0.032826
  0
VERTEX
  8
0
 10
519.148650
 20
846.159661
 42
0.034785
  0
VERTEX
  8
0
 10
517.369456
 20
847.891956
 42
0.078906
  0
VERTEX
  8
0
 10
515.768157
 20
848.862771
 42
0.063945
  0
VERTEX
  8
0
 10
513.740368
 20
849.401799
 42
0.016931
  0
VERTEX
  8
0
 10
510.398650
 20
849.731136
 42
0.019376
  0
VERTEX
  8
0
 10
507.272156
 20
849.811284
 42
0.040147
  0
VERTEX
  8
0
 10
504.842415
 20
849.583759
 42
0.044420
  0
VERTEX
  8
0
 10
502.641132
 20
848.992501
 42
0.029775
  0
SEQEND
  0
POLYLINE
  8
0
 66
1
 70
1
  0
VERTEX
  8
0
 10
536.762571
 20
848.434612
 42
0.124929
  0
VERTEX
  8
0
 10
533.373059
 20
845.304003
 42
0.080430
  0
VERTEX
  8
0
 10
531.200172
 20
840.385567
 42
0.075798
  0
VERTEX
  8
0
 10
530.608152
 20
834.723419
 42
0.087736
  0
VERTEX
  8
0
 10
531.801439
 20
829.440571
 42
0.140151
  0
VERTEX
  8
0
 10
535.033850
 20
825.407683
 42
0.107011
  0
VERTEX
  8
0
 10
540.260621
 20
823.176640
 42
0.102996
  0
VERTEX
  8
0
 10
546.116503
 20
823.264731
 42
0.120375
  0
VERTEX
  8
0
 10
551.087378
 20
825.726978
 42
0.000000
  0
VERTEX
  8
0
 10
554.328207
 20
828.453955
 42
0.000000
  0
VERTEX
  8
0
 10
553.635500
 20
824.122005
 42
-0.061285
  0
VERTEX
  8
0
 10
551.855702
 20
817.955376
 42
-0.102468
  0
VERTEX
  8
0
 10
548.785088
 20
813.539675
 42
-0.110394
  0
VERTEX
  8
0
 10
544.396794
 20
810.914846
 42
-0.079760
  0
VERTEX
  8
0
 10
538.750000
 20
810.003738
 42
0.012680
  0
VERTEX
  8
0
 10
536.106672
 20
809.934611
 42
0.087141
  0
VERTEX
  8
0
 10
534.844217
 20
809.645204
 42
0.188929
  0
VERTEX
  8
0
 10
534.224446
 20
809.041042
 42
0.106574
  0
VERTEX
  8
0
 10
534.000000
 20
808.000000
 42
0.110969
  0
VERTEX
  8
0
 10
534.235175
 20
806.953403
 42
0.189839
  0
VERTEX
  8
0
 10
534.879015
 20
806.349362
 42
0.083342
  0
VERTEX
  8
0
 10
536.201566
 20
806.064697
 42
0.011427
  0
VERTEX
  8
0
 10
539.032119
 20
806.000000
 42
0.085699
  0
VERTEX
  8
0
 10
547.611864
 20
807.481424
 42
0.138395
  0
VERTEX
  8
0
 10
553.615915
 20
811.740644
 42
0.116527
  0
VERTEX
  8
0
 10
557.155491
 20
819.129406
 42
0.050849
  0
VERTEX
  8
0
 10
558.390553
 20
830.000000
 42
0.007732
  0
VERTEX
  8
0
 10
558.369128
 20
835.434059
 42
0.036905
  0
VERTEX
  8
0
 10
558.080541
 20
838.522097
 42
0.057533
  0
VERTEX
  8
0
 10
557.408205
 20
840.843601
 42
0.039872
  0
VERTEX
  8
0
 10
556.153457
 20
843.274244
 42
0.031612
  0
VERTEX
  8
0
 10
555.045908
 20
844.827456
 42
0.024505
  0
VERTEX
  8
0
 10
553.657908
 20
846.373308
 42
0.025066
  0
VERTEX
  8
0
 10
552.214430
 20
847.691407
 42
0.053214
  0
VERTEX
  8
0
 10
550.953117
 20
848.524244
 42
0.076966
  0
VERTEX
  8
0
 10
547.814542
 20
849.576959
 42
0.044105
  0
VERTEX
  8
0
 10
543.825251
 20
849.904161
 42
0.044159
  0
VERTEX
  8
0
 10
539.851412
 20
849.527206
 42
0.078738
  0
SEQEND
  0
POLYLINE
  8
0
 66
1
 70
1
  0
VERTEX
  8
0
 10
549.150400
 20
844.919509
 42
-0.116336
  0
VERTEX
  8
0
 10
550.790528
 20
843.472194
 42
-0.040820
  0
VERTEX
  8
0
 10
552.401666
 20
840.750842
 42
-0.040870
  0
VERTEX
  8
0
 10
553.606048
 20
837.657187
 42
-0.072517
  0
VERTEX
  8
0
 10
554.000000
 20
834.955196
 42
-0.147336
  0
VERTEX
  8
0
 10
553.202557
 20
832.307745
 42
-0.072113
  0
VERTEX
  8
0
 10
550.832957
 20
829.655172
 42
-0.069308
  0
VERTEX
  8
0
 10
547.669042
 20
827.674588
 42
-0.105619
  0
VERTEX
  8
0
 10
544.511182
 20
827.000000
 42
-0.041602
  0
VERTEX
  8
0
 10
541.334475
 20
827.264775
 42
-0.090544
  0
VERTEX
  8
0
 10
539.042207
 20
828.093497
 42
-0.101279
  0
VERTEX
  8
0
 10
537.350054
 20
829.605931
 42
-0.061792
  0
VERTEX
  8
0
 10
536.022733
 20
831.945118
 42
-0.145360
  0
VERTEX
  8
0
 10
535.388236
 20
838.023952
 42
-0.152817
  0
VERTEX
  8
0
 10
538.202656
 20
843.326171
 42
-0.160045
  0
VERTEX
  8
0
 10
543.416881
 20
845.923390
 42
-0.160386
  0
SEQEND
  0
POLYLINE
  8
0
 66
1
 70
1
  0
VERTEX
  8
0
 10
596.502836
 20
847.703325
 42
0.041068
  0
VERTEX
  8
0
 10
594.690139
 20
846.470109
 42
0.030899
  0
VERTEX
  8
0
 10
592.910885
 20
844.841358
 42
0.030255
  0
VERTEX
  8
0
 10
591.303038
 20
842.960343
 42
0.034094
  0
VERTEX
  8
0
 10
590.002836
 20
840.969776
 42
0.033338
  0
VERTEX
  8
0
 10
588.642540
 20
838.108557
 42
0.052920
  0
VERTEX
  8
0
 10
587.916015
 20
835.497673
 42
0.034456
  0
VERTEX
  8
0
 10
587.584892
 20
832.086836
 42
0.006973
  0
VERTEX
  8
0
 10
587.500000
 20
826.000000
 42
0.006130
  0
VERTEX
  8
0
 10
587.574914
 20
819.889799
 42
0.035785
  0
VERTEX
  8
0
 10
587.883189
 20
816.690438
 42
0.063344
  0
VERTEX
  8
0
 10
588.563562
 20
814.444246
 42
0.049774
  0
VERTEX
  8
0
 10
589.828838
 20
812.234911
 42
0.056272
  0
VERTEX
  8
0
 10
592.527704
 20
809.231206
 42
0.076951
  0
VERTEX
  8
0
 10
595.579248
 20
807.263280
 42
0.075889
  0
VERTEX
  8
0
 10
599.116591
 20
806.293083
 42
0.053048
  0
VERTEX
  8
0
 10
603.258507
 20
806.250817
 42
0.071831
  0
VERTEX
  8
0
 10
607.851831
 20
807.371034
 42
0.102135
  0
VERTEX
  8
0
 10
611.342155
 20
809.688794
 42
0.101521
  0
VERTEX
  8
0
 10
613.643303
 20
813.211139
 42
0.070252
  0
VERTEX
  8
0
 10
614.759884
 20
817.852868
 42
0.025250
  0
VERTEX
  8
0
 10
614.955417
 20
822.165874
 42
0.063332
  0
VERTEX
  8
0
 10
614.542686
 20
825.282099
 42
0.077350
  0
VERTEX
  8
0
 10
613.434852
 20
827.813210
 42
0.054664
  0
VERTEX
  8
0
 10
611.489395
 20
830.237878
 42
0.116370
  0
VERTEX
  8
0
 10
607.342269
 20
832.801663
 42
0.088189
  0
VERTEX
  8
0
 10
602.032629
 20
833.582859
 42
0.091705
  0
VERTEX
  8
0
 10
596.966366
 20
832.488494
 42
0.141978
  0
VERTEX
  8
0
 10
593.503101
 20
829.700965
 42
-0.007812
  0
VERTEX
  8
0
 10
592.498646
 20
828.313551
 42
-0.405542
  0
VERTEX
  8
0
 10
592.199811
 20
828.265943
 42
-0.239753
  0
VERTEX
  8
0
 10
592.018254
 20
828.608296
 42
-0.004247
  0
VERTEX
  8
0
 10
592.000000
 20
830.757257
 42
-0.084339
  0
VERTEX
  8
0
 10
593.051542
 20
836.946946
 42
-0.109534
  0
VERTEX
  8
0
 10
596.073562
 20
841.823775
 42
-0.111182
  0
VERTEX
  8
0
 10
600.833240
 20
844.917644
 42
-0.088967
  0
VERTEX
  8
0
 10
606.868034
 20
846.000000
 42
0.011039
  0
VERTEX
  8
0
 10
609.764598
 20
846.063960
 42
0.082046
  0
VERTEX
  8
0
 10
611.108504
 20
846.347429
 42
0.189945
  0
VERTEX
  8
0
 10
611.760966
 20
846.951646
 42
0.112560
  0
VERTEX
  8
0
 10
612.000000
 20
848.000000
 42
0.122191
  0
VERTEX
  8
0
 10
611.737601
 20
849.057695
 42
0.190314
  0
VERTEX
  8
0
 10
611.033306
 20
849.660993
 42
0.074871
  0
VERTEX
  8
0
 10
609.559947
 20
849.933241
 42
0.009030
  0
VERTEX
  8
0
 10
606.250000
 20
849.983550
 42
0.022431
  0
VERTEX
  8
0
 10
603.371835
 20
849.846115
 42
0.034323
  0
VERTEX
  8
0
 10
600.906960
 20
849.445334
 42
0.037240
  0
VERTEX
  8
0
 10
598.674556
 20
848.744362
 42
0.034166
  0
SEQEND
  0
POLYLINE
  8
0
 66
1
 70
1
  0
VERTEX
  8
0
 10
608.250000
 20
826.919630
 42
-0.119037
  0
VERTEX
  8
0
 10
609.744566
 20
823.811703
 42
-0.065079
  0
VERTEX
  8
0
 10
610.089939
 20
819.573326
 42
-0.065115
  0
VERTEX
  8
0
 10
609.334599
 20
815.391925
 42
-0.119726
  0
VERTEX
  8
0
 10
607.545455
 20
812.454545
 42
-0.145539
  0
VERTEX
  8
0
 10
603.069339
 20
810.030409
 42
-0.158554
  0
VERTEX
  8
0
 10
598.162194
 20
810.558432
 42
-0.144460
  0
VERTEX
  8
0
 10
594.178249
 20
813.973171
 42
-0.116271
  0
VERTEX
  8
0
 10
592.268808
 20
819.307498
 42
-0.054216
  0
VERTEX
  8
0
 10
592.255411
 20
822.729234
 42
-0.096844
  0
VERTEX
  8
0
 10
593.077161
 20
825.409472
 42
-0.102341
  0
VERTEX
  8
0
 10
594.806857
 20
827.485877
 42
-0.066096
  0
VERTEX
  8
0
 10
597.500000
 20
829.101208
 42
-0.095593
  0
VERTEX
  8
0
 10
600.120355
 20
829.680742
 42
-0.056880
  0
VERTEX
  8
0
 10
603.315046
 20
829.403447
 42
-0.057645
  0
VERTEX
  8
0
 10
606.294348
 20
828.431384
 42
-0.114256
  0
SEQEND
  0
POLYLINE
  8
0
 66
1
 70
1
  0
VERTEX
  8
0
 10
630.214558
 20
835.609567
 42
0.006439
  0
VERTEX
  8
0
 10
626.300980
 20
829.942829
 42
0.009302
  0
VERTEX
  8
0
 10
623.000526
 20
824.826639
 42
0.005569
  0
VERTEX
  8
0
 10
620.371140
 20
820.471646
 42
0.133801
  0
VERTEX
  8
0
 10
620.000000
 20
819.109567
 42
0.174775
  0
VERTEX
  8
0
 10
620.421256
 20
817.941243
 42
0.171763
  0
VERTEX
  8
0
 10
621.494331
 20
817.300228
 42
0.046187
  0
VERTEX
  8
0
 10
623.892849
 20
817.045116
 42
0.003414
  0
VERTEX
  8
0
 10
630.500000
 20
817.000000
 42
0.000000
  0
VERTEX
  8
0
 10
641.000000
 20
817.000000
 42
0.000000
  0
VERTEX
  8
0
 10
641.000000
 20
811.500000
 42
0.009966
  0
VERTEX
  8
0
 10
641.061926
 20
808.393380
 42
0.075265
  0
VERTEX
  8
0
 10
641.338534
 20
806.955946
 42
0.184445
  0
VERTEX
  8
0
 10
641.930739
 20
806.260150
 42
0.125874
  0
VERTEX
  8
0
 10
642.947740
 20
806.000000
 42
0.126897
  0
VERTEX
  8
0
 10
643.958802
 20
806.260800
 42
0.166775
  0
VERTEX
  8
0
 10
644.593761
 20
806.962654
 42
0.075035
  0
VERTEX
  8
0
 10
644.963657
 20
808.381050
 42
0.011952
  0
VERTEX
  8
0
 10
645.197740
 20
811.250000
 42
-0.010613
  0
VERTEX
  8
0
 10
645.460736
 20
814.583324
 42
-0.117611
  0
VERTEX
  8
0
 10
645.895904
 20
815.836971
 42
-0.191512
  0
VERTEX
  8
0
 10
646.779578
 20
816.473318
 42
-0.037402
  0
VERTEX
  8
0
 10
648.750000
 20
816.813358
 42
0.029992
  0
VERTEX
  8
0
 10
650.325764
 20
817.061331
 42
0.097682
  0
VERTEX
  8
0
 10
651.290008
 20
817.481338
 42
0.143886
  0
VERTEX
  8
0
 10
651.813870
 20
818.129892
 42
0.098727
  0
VERTEX
  8
0
 10
652.000000
 20
819.063358
 42
0.094654
  0
VERTEX
  8
0
 10
651.816881
 20
820.021997
 42
0.173694
  0
VERTEX
  8
0
 10
651.298187
 20
820.611668
 42
0.103967
  0
VERTEX
  8
0
 10
650.301723
 20
820.917951
 42
0.022758
  0
VERTEX
  8
0
 10
648.500000
 20
821.000000
 42
0.000000
  0
VERTEX
  8
0
 10
645.000000
 20
821.000000
 42
0.000000
  0
VERTEX
  8
0
 10
645.000000
 20
835.500000
 42
0.002017
  0
VERTEX
  8
0
 10
644.961193
 20
845.122050
 42
0.037083
  0
VERTEX
  8
0
 10
644.710596
 20
848.163874
 42
0.165244
  0
VERTEX
  8
0
 10
644.019298
 20
849.479317
 42
0.192167
  0
VERTEX
  8
0
 10
642.714558
 20
850.000000
 42
0.183733
  0
VERTEX
  8
0
 10
641.114346
 20
849.391434
 42
0.032201
  0
VERTEX
  8
0
 10
638.808357
 20
847.058509
 42
0.020141
  0
VERTEX
  8
0
 10
635.532264
 20
842.965020
 42
0.004344
  0
SEQEND
  0
POLYLINE
  8
0
 66
1
 70
1
  0
VERTEX
  8
0
 10
641.000000
 20
832.500000
 42
0.000000
  0
VERTEX
  8
0
 10
641.000000
 20
821.000000
 42
0.000000
  0
VERTEX
  8
0
 10
633.000000
 20
821.000000
 42
-0.006272
  0
VERTEX
  8
0
 10
629.932522
 20
821.038478
 42
-0.010428
  0
VERTEX
  8
0
 10
627.350000
 20
821.157207
 42
-0.004300
  0
VERTEX
  8
0
 10
625.198029
 20
821.319769
 42
-0.389820
  0
VERTEX
  8
0
 10
625.000000
 20
821.535172
 42
-0.150474
  0
VERTEX
  8
0
 10
625.115488
 20
821.910229
 42
-0.001245
  0
VERTEX
  8
0
 10
626.868497
 20
824.473118
 42
-0.004294
  0
VERTEX
  8
0
 10
628.922669
 20
827.406051
 42
-0.002734
  0
VERTEX
  8
0
 10
631.360840
 20
830.785172
 42
0.003206
  0
VERTEX
  8
0
 10
633.882409
 20
834.286843
 42
0.003897
  0
VERTEX
  8
0
 10
636.198146
 20
837.600957
 42
0.003294
  0
VERTEX
  8
0
 10
638.105240
 20
840.415619
 42
0.026976
  0
VERTEX
  8
0
 10
638.896023
 20
841.750000
 42
-0.015157
  0
VERTEX
  8
0
 10
639.379719
 20
842.612001
 42
-0.021991
  0
VERTEX
  8
0
 10
639.861944
 20
843.339062
 42
-0.018653
  0
VERTEX
  8
0
 10
640.294666
 20
843.888734
 42
-0.220100
  0
VERTEX
  8
0
 10
640.535184
 20
844.000000
 42
-0.400577
  0
VERTEX
  8
0
 10
640.723977
 20
843.819839
 42
-0.001596
  0
VERTEX
  8
0
 10
640.863460
 20
840.621875
 42
-0.006311
  0
VERTEX
  8
0
 10
640.966592
 20
836.909618
 42
-0.003788
  0
SEQEND
  0
POLYLINE
  8
0
 66
1
 70
1
  0
VERTEX
  8
0
 10
697.549362
 20
844.250000
 42
-0.000249
  0
VERTEX
  8
0
 10
697.288672
 20
841.741051
 42
-0.000182
  0
VERTEX
  8
0
 10
696.996594
 20
838.953406
 42
-0.000184
  0
VERTEX
  8
0
 10
696.717788
 20
836.311075
 42
-0.000405
  0
VERTEX
  8
0
 10
696.502500
 20
834.293508
 42
0.022339
  0
VERTEX
  8
0
 10
696.387623
 20
832.456264
 42
0.043036
  0
VERTEX
  8
0
 10
696.488093
 20
830.986342
 42
0.056635
  0
VERTEX
  8
0
 10
696.782031
 20
829.913475
 42
0.159774
  0
VERTEX
  8
0
 10
697.275094
 20
829.325029
 42
0.111922
  0
VERTEX
  8
0
 10
698.091769
 20
829.042027
 42
0.012677
  0
VERTEX
  8
0
 10
700.053918
 20
828.874229
 42
0.014840
  0
VERTEX
  8
0
 10
702.430458
 20
828.802245
 42
0.011555
  0
VERTEX
  8
0
 10
705.014840
 20
828.860417
 42
-0.013119
  0
VERTEX
  8
0
 10
708.524251
 20
828.928434
 42
-0.045744
  0
VERTEX
  8
0
 10
710.776977
 20
828.706317
 42
-0.065631
  0
VERTEX
  8
0
 10
712.493292
 20
828.136061
 42
-0.053717
  0
VERTEX
  8
0
 10
714.133730
 20
827.109448
 42
-0.139815
  0
VERTEX
  8
0
 10
716.856585
 20
823.346998
 42
-0.119380
  0
VERTEX
  8
0
 10
717.400505
 20
818.466335
 42
-0.120461
  0
VERTEX
  8
0
 10
715.652581
 20
813.911433
 42
-0.143961
  0
VERTEX
  8
0
 10
712.087093
 20
811.036075
 42
-0.079521
  0
VERTEX
  8
0
 10
709.131343
 20
810.331551
 42
-0.026788
  0
VERTEX
  8
0
 10
704.688177
 20
810.235030
 42
-0.027284
  0
VERTEX
  8
0
 10
700.144164
 20
810.628603
 42
-0.058641
  0
VERTEX
  8
0
 10
696.750000
 20
811.524626
 42
0.056318
  0
VERTEX
  8
0
 10
695.895540
 20
811.754432
 42
0.213025
  0
VERTEX
  8
0
 10
695.374388
 20
811.610445
 42
0.182081
  0
VERTEX
  8
0
 10
695.082258
 20
811.101697
 42
0.040278
  0
VERTEX
  8
0
 10
695.000000
 20
810.082238
 42
0.191030
  0
VERTEX
  8
0
 10
695.704727
 20
808.305007
 42
0.112489
  0
VERTEX
  8
0
 10
697.628072
 20
807.012380
 42
0.067013
  0
VERTEX
  8
0
 10
700.887964
 20
806.235769
 42
0.025017
  0
VERTEX
  8
0
 10
705.597218
 20
806.000000
 42
0.036823
  0
VERTEX
  8
0
 10
710.168844
 20
806.337142
 42
0.054091
  0
VERTEX
  8
0
 10
714.064579
 20
807.353925
 42
0.061637
  0
VERTEX
  8
0
 10
717.252665
 20
809.040104
 42
0.073799
  0
VERTEX
  8
0
 10
719.719177
 20
811.370121
 42
0.104612
  0
VERTEX
  8
0
 10
722.104495
 20
816.208259
 42
0.096312
  0
VERTEX
  8
0
 10
722.423753
 20
821.749285
 42
0.098161
  0
VERTEX
  8
0
 10
720.651746
 20
826.919707
 42
0.113634
  0
VERTEX
  8
0
 10
717.102117
 20
830.713443
 42
0.040533
  0
VERTEX
  8
0
 10
715.092209
 20
831.841158
 42
0.050791
  0
VERTEX
  8
0
 10
713.070358
 20
832.530965
 42
0.040770
  0
VERTEX
  8
0
 10
710.622389
 20
832.890437
 42
0.016079
  0
VERTEX
  8
0
 10
707.216193
 20
833.000000
 42
0.000000
  0
VERTEX
  8
0
 10
700.728152
 20
833.000000
 42
0.000000
  0
VERTEX
  8
0
 10
701.364076
 20
837.639571
 42
0.004812
  0
VERTEX
  8
0
 10
701.607514
 20
839.552282
 42
0.004862
  0
VERTEX
  8
0
 10
701.813197
 20
841.462769
 42
0.004744
  0
VERTEX
  8
0
 10
701.960311
 20
843.129523
 42
0.019639
  0
VERTEX
  8
0
 10
702.000000
 20
844.139571
 42
-0.198137
  0
VERTEX
  8
0
 10
702.408261
 20
845.129376
 42
-0.147184
  0
VERTEX
  8
0
 10
703.459399
 20
845.698321
 42
-0.046193
  0
VERTEX
  8
0
 10
705.698680
 20
845.949095
 42
-0.004801
  0
VERTEX
  8
0
 10
711.000000
 20
846.000000
 42
0.004487
  0
VERTEX
  8
0
 10
716.467166
 20
846.049067
 42
0.050222
  0
VERTEX
  8
0
 10
718.625000
 20
846.305556
 42
0.168559
  0
VERTEX
  8
0
 10
719.613791
 20
846.915397
 42
0.172730
  0
VERTEX
  8
0
 10
720.000000
 20
848.000000
 42
0.199182
  0
VERTEX
  8
0
 10
719.545538
 20
849.095562
 42
0.151992
  0
VERTEX
  8
0
 10
718.383995
 20
849.704246
 42
0.041879
  0
VERTEX
  8
0
 10
715.824352
 20
849.954098
 42
0.003399
  0
VERTEX
  8
0
 10
709.071956
 20
850.000000
 42
0.000000
  0
VERTEX
  8
0
 10
698.143913
 20
850.000000
 42
0.000000
  0
SEQEND
  0
POLYLINE
  8
0
 66
1
 70
1
  0
VERTEX
  8
0
 10
806.750000
 20
848.341518
 42
0.045754
  0
VERTEX
  8
0
 10
804.522260
 20
847.168598
 42
0.114429
  0
VERTEX
  8
0
 10
803.254427
 20
845.852855
 42
0.209345
  0
VERTEX
  8
0
 10
803.096686
 20
844.610156
 42
0.184748
  0
VERTEX
  8
0
 10
803.893766
 20
843.565656
 42
0.165640
  0
VERTEX
  8
0
 10
804.450226
 20
843.438136
 42
0.026144
  0
VERTEX
  8
0
 10
805.574885
 20
843.614214
 42
0.026613
  0
VERTEX
  8
0
 10
806.927651
 20
843.975225
 42
0.020446
  0
VERTEX
  8
0
 10
808.361647
 20
844.506639
 42
-0.069180
  0
VERTEX
  8
0
 10
814.109059
 20
846.021053
 42
-0.106020
  0
VERTEX
  8
0
 10
819.219055
 20
845.550877
 42
-0.143423
  0
VERTEX
  8
0
 10
822.680509
 20
843.243714
 42
-0.176289
  0
VERTEX
  8
0
 10
824.000000
 20
839.617610
 42
-0.104466
  0
VERTEX
  8
0
 10
823.340381
 20
836.494958
 42
-0.114203
  0
VERTEX
  8
0
 10
821.483105
 20
834.020001
 42
-0.094071
  0
VERTEX
  8
0
 10
818.397245
 20
832.285745
 42
-0.051679
  0
VERTEX
  8
0
 10
814.154929
 20
831.331943
 42
0.014614
  0
VERTEX
  8
0
 10
811.563034
 20
830.947870
 42
0.062973
  0
VERTEX
  8
0
 10
810.078123
 20
830.485087
 42
0.125176
  0
VERTEX
  8
0
 10
809.291225
 20
829.852708
 42
0.162607
  0
VERTEX
  8
0
 10
809.000000
 20
828.980900
 42
0.174781
  0
VERTEX
  8
0
 10
809.319279
 20
828.095433
 42
0.133117
  0
VERTEX
  8
0
 10
810.168378
 20
827.496930
 42
0.058528
  0
VERTEX
  8
0
 10
811.828530
 20
827.104038
 42
0.010814
  0
VERTEX
  8
0
 10
814.962526
 20
826.809092
 42
-0.038280
  0
VERTEX
  8
0
 10
819.748751
 20
826.091938
 42
-0.110107
  0
VERTEX
  8
0
 10
822.762576
 20
824.656173
 42
-0.143367
  0
VERTEX
  8
0
 10
824.423899
 20
822.339342
 42
-0.084524
  0
VERTEX
  8
0
 10
825.000000
 20
818.955796
 42
-0.040541
  0
VERTEX
  8
0
 10
824.865439
 20
817.298964
 42
-0.035432
  0
VERTEX
  8
0
 10
824.464049
 20
815.606870
 42
-0.036690
  0
VERTEX
  8
0
 10
823.853040
 20
814.064093
 42
-0.057542
  0
VERTEX
  8
0
 10
823.089552
 20
812.860784
 42
-0.063794
  0
VERTEX
  8
0
 10
821.772511
 20
811.601385
 42
-0.093357
  0
VERTEX
  8
0
 10
820.331595
 20
810.906339
 42
-0.055448
  0
VERTEX
  8
0
 10
818.226445
 20
810.582829
 42
-0.010516
  0
VERTEX
  8
0
 10
814.339552
 20
810.502479
 42
-0.011392
  0
VERTEX
  8
0
 10
811.512970
 20
810.567913
 42
-0.011196
  0
VERTEX
  8
0
 10
808.675866
 20
810.762045
 42
-0.011136
  0
VERTEX
  8
0
 10
806.198286
 20
811.043163
 42
-0.041226
  0
VERTEX
  8
0
 10
804.663394
 20
811.382624
 42
0.015301
  0
VERTEX
  8
0
 10
802.965106
 20
811.851663
 42
0.194364
  0
VERTEX
  8
0
 10
802.322490
 20
811.757776
 42
0.273316
  0
VERTEX
  8
0
 10
802.049754
 20
811.268101
 42
0.029384
  0
VERTEX
  8
0
 10
802.163394
 20
809.921139
 42
0.159998
  0
VERTEX
  8
0
 10
803.040851
 20
808.151109
 42
0.119869
  0
VERTEX
  8
0
 10
804.902688
 20
806.997625
 42
0.060975
  0
VERTEX
  8
0
 10
808.200196
 20
806.348852
 42
0.014193
  0
VERTEX
  8
0
 10
813.848871
 20
806.099680
 42
0.054165
  0
VERTEX
  8
0
 10
821.050376
 20
806.767909
 42
0.112372
  0
VERTEX
  8
0
 10
826.166144
 20
809.080481
 42
0.133442
  0
VERTEX
  8
0
 10
829.237007
 20
813.060867
 42
0.092995
  0
VERTEX
  8
0
 10
830.405575
 20
818.643407
 42
0.026235
  0
VERTEX
  8
0
 10
830.324846
 20
821.199770
 42
0.079919
  0
VERTEX
  8
0
 10
829.907240
 20
822.880553
 42
0.081636
  0
VERTEX
  8
0
 10
828.989172
 20
824.325752
 42
0.028168
  0
VERTEX
  8
0
 10
827.234223
 20
826.081497
 42
0.029151
  0
VERTEX
  8
0
 10
825.819750
 20
827.204465
 42
0.028351
  0
VERTEX
  8
0
 10
824.271466
 20
828.166652
 42
0.029557
  0
VERTEX
  8
0
 10
822.815991
 20
828.852326
 42
0.086381
  0
VERTEX
  8
0
 10
821.734223
 20
829.081574
 42
-0.020013
  0
VERTEX
  8
0
 10
820.576522
 20
829.170330
 42
-0.553563
  0
VERTEX
  8
0
 10
820.468692
 20
829.397540
 42
-0.143377
  0
VERTEX
  8
0
 10
820.854165
 20
829.734227
 42
-0.005070
  0
VERTEX
  8
0
 10
822.673417
 20
830.553193
 42
0.061536
  0
VERTEX
  8
0
 10
825.380810
 20
832.160558
 42
0.078028
  0
VERTEX
  8
0
 10
827.374299
 20
834.273279
 42
0.080330
  0
VERTEX
  8
0
 10
828.584902
 20
836.842659
 42
0.070115
  0
VERTEX
  8
0
 10
829.000000
 20
839.788248
 42
0.047897
  0
VERTEX
  8
0
 10
828.714280
 20
842.764034
 42
0.082279
  0
VERTEX
  8
0
 10
827.848994
 20
845.093692
 42
0.086231
  0
VERTEX
  8
0
 10
826.313506
 20
846.947120
 42
0.057477
  0
VERTEX
  8
0
 10
824.020016
 20
848.489650
 42
0.084918
  0
VERTEX
  8
0
 10
820.591252
 20
849.579740
 42
0.036758
  0
VERTEX
  8
0
 10
815.796933
 20
849.891359
 42
0.036499
  0
VERTEX
  8
0
 10
810.819115
 20
849.484547
 42
0.059739
  0
SEQEND
  0
POLYLINE
  8
0
 66
1
 70
1
  0
VERTEX
  8
0
 10
846.214558
 20
835.609567
 42
0.006439
  0
VERTEX
  8
0
 10
842.300980
 20
829.942829
 42
0.009302
  0
VERTEX
  8
0
 10
839.000526
 20
824.826639
 42
0.005569
  0
VERTEX
  8
0
 10
836.371140
 20
820.471646
 42
0.133801
  0
VERTEX
  8
0
 10
836.000000
 20
819.109567
 42
0.174775
  0
VERTEX
  8
0
 10
836.421256
 20
817.941243
 42
0.171763
  0
VERTEX
  8
0
 10
837.494331
 20
817.300228
 42
0.046187
  0
VERTEX
  8
0
 10
839.892849
 20
817.045116
 42
0.003414
  0
VERTEX
  8
0
 10
846.500000
 20
817.000000
 42
0.000000
  0
VERTEX
  8
0
 10
857.000000
 20
817.000000
 42
0.000000
  0
VERTEX
  8
0
 10
857.000000
 20
811.500000
 42
0.009966
  0
VERTEX
  8
0
 10
857.061926
 20
808.393380
 42
0.075265
  0
VERTEX
  8
0
 10
857.338534
 20
806.955946
 42
0.184445
  0
VERTEX
  8
0
 10
857.930739
 20
806.260150
 42
0.125874
  0
VERTEX
  8
0
 10
858.947740
 20
806.000000
 42
0.126897
  0
VERTEX
  8
0
 10
859.958802
 20
806.260800
 42
0.166775
  0
VERTEX
  8
0
 10
860.593761
 20
806.962654
 42
0.075035
  0
VERTEX
  8
0
 10
860.963657
 20
808.381050
 42
0.011952
  0
VERTEX
  8
0
 10
861.197740
 20
811.250000
 42
-0.010613
  0
VERTEX
  8
0
 10
861.460736
 20
814.583324
 42
-0.117611
  0
VERTEX
  8
0
 10
861.895904
 20
815.836971
 42
-0.191512
  0
VERTEX
  8
0
 10
862.779578
 20
816.473318
 42
-0.037402
  0
VERTEX
  8
0
 10
864.750000
 20
816.813358
 42
0.029992
  0
VERTEX
  8
0
 10
866.325764
 20
817.061331
 42
0.097682
  0
VERTEX
  8
0
 10
867.290008
 20
817.481338
 42
0.143886
  0
VERTEX
  8
0
 10
867.813870
 20
818.129892
 42
0.098727
  0
VERTEX
  8
0
 10
868.000000
 20
819.063358
 42
0.094654
  0
VERTEX
  8
0
 10
867.816881
 20
820.021997
 42
0.173694
  0
VERTEX
  8
0
 10
867.298187
 20
820.611668
 42
0.103967
  0
VERTEX
  8
0
 10
866.301723
 20
820.917951
 42
0.022758
  0
VERTEX
  8
0
 10
864.500000
 20
821.000000
 42
0.000000
  0
VERTEX
  8
0
 10
861.000000
 20
821.000000
 42
0.000000
  0
VERTEX
  8
0
 10
861.000000
 20
835.500000
 42
0.002017
  0
VERTEX
  8
0
 10
860.961193
 20
845.122050
 42
0.037083
  0
VERTEX
  8
0
 10
860.710596
 20
848.163874
 42
0.165244
  0
VERTEX
  8
0
 10
860.019298
 20
849.479317
 42
0.192167
  0
VERTEX
  8
0
 10
858.714558
 20
850.000000
 42
0.183733
  0
VERTEX
  8
0
 10
857.114346
 20
849.391434
 42
0.032201
  0
VERTEX
  8
0
 10
854.808357
 20
847.058509
 42
0.020141
  0
VERTEX
  8
0
 10
851.532264
 20
842.965020
 42
0.004344
  0
SEQEND
  0
POLYLINE
  8
0
 66
1
 70
1
  0
VERTEX
  8
0
 10
857.000000
 20
832.500000
 42
0.000000
  0
VERTEX
  8
0
 10
857.000000
 20
821.000000
 42
0.000000
  0
VERTEX
  8
0
 10
849.000000
 20
821.000000
 42
-0.006272
  0
VERTEX
  8
0
 10
845.932522
 20
821.038478
 42
-0.010428
  0
VERTEX
  8
0
 10
843.350000
 20
821.157207
 42
-0.004300
  0
VERTEX
  8
0
 10
841.198029
 20
821.319769
 42
-0.389820
  0
VERTEX
  8
0
 10
841.000000
 20
821.535172
 42
-0.150474
  0
VERTEX
  8
0
 10
841.115488
 20
821.910229
 42
-0.001245
  0
VERTEX
  8
0
 10
842.868497
 20
824.473118
 42
-0.004294
  0
VERTEX
  8
0
 10
844.922669
 20
827.406051
 42
-0.002734
  0
VERTEX
  8
0
 10
847.360840
 20
830.785172
 42
0.003206
  0
VERTEX
  8
0
 10
849.882409
 20
834.286843
 42
0.003897
  0
VERTEX
  8
0
 10
852.198146
 20
837.600957
 42
0.003294
  0
VERTEX
  8
0
 10
854.105240
 20
840.415619
 42
0.026976
  0
VERTEX
  8
0
 10
854.896023
 20
841.750000
 42
-0.015157
  0
VERTEX
  8
0
 10
855.379719
 20
842.612001
 42
-0.021991
  0
VERTEX
  8
0
 10
855.861944
 20
843.339062
 42
-0.018653
  0
VERTEX
  8
0
 10
856.294666
 20
843.888734
 42
-0.220100
  0
VERTEX
  8
0
 10
856.535184
 20
844.000000
 42
-0.400577
  0
VERTEX
  8
0
 10
856.723977
 20
843.819839
 42
-0.001596
  0
VERTEX
  8
0
 10
856.863460
 20
840.621875
 42
-0.006311
  0
VERTEX
  8
0
 10
856.966592
 20
836.909618
 42
-0.003788
  0
SEQEND
  0
POLYLINE
  8
0
 66
1
 70
1
  0
VERTEX
  8
0
 10
879.365039
 20
848.140326
 42
0.103195
  0
VERTEX
  8
0
 10
876.303674
 20
845.189988
 42
0.070615
  0
VERTEX
  8
0
 10
874.165561
 20
840.843994
 42
0.054113
  0
VERTEX
  8
0
 10
872.926692
 20
834.976611
 42
0.027275
  0
VERTEX
  8
0
 10
872.582742
 20
827.411233
 42
0.042296
  0
VERTEX
  8
0
 10
873.499496
 20
817.650178
 42
0.106990
  0
VERTEX
  8
0
 10
876.204462
 20
811.094911
 42
0.141934
  0
VERTEX
  8
0
 10
880.809089
 20
807.338564
 42
0.100916
  0
VERTEX
  8
0
 10
887.373615
 20
806.000000
 42
0.078880
  0
VERTEX
  8
0
 10
891.520971
 20
806.658380
 42
0.097269
  0
VERTEX
  8
0
 10
894.934249
 20
808.562230
 42
0.089099
  0
VERTEX
  8
0
 10
897.582892
 20
811.769145
 42
0.056044
  0
VERTEX
  8
0
 10
899.483547
 20
816.256550
 42
0.058371
  0
VERTEX
  8
0
 10
900.933436
 20
824.599716
 42
0.045929
  0
VERTEX
  8
0
 10
900.599885
 20
833.774545
 42
0.047895
  0
VERTEX
  8
0
 10
898.741419
 20
841.937733
 42
0.124904
  0
VERTEX
  8
0
 10
895.525755
 20
846.975804
 42
0.108343
  0
VERTEX
  8
0
 10
892.261333
 20
848.925255
 42
0.062723
  0
VERTEX
  8
0
 10
887.759164
 20
849.824853
 42
0.061989
  0
VERTEX
  8
0
 10
883.101251
 20
849.582963
 42
0.096691
  0
SEQEND
  0
POLYLINE
  8
0
 66
1
 70
1
  0
VERTEX
  8
0
 10
890.945489
 20
845.029173
 42
-0.145136
  0
VERTEX
  8
0
 10
893.018959
 20
842.979382
 42
-0.053639
  0
VERTEX
  8
0
 10
894.618924
 20
839.149352
 42
-0.043923
  0
VERTEX
  8
0
 10
895.658486
 20
834.040532
 42
-0.028246
  0
VERTEX
  8
0
 10
896.000000
 20
828.000000
 42
-0.028246
  0
VERTEX
  8
0
 10
895.658486
 20
821.959468
 42
-0.043923
  0
VERTEX
  8
0
 10
894.618924
 20
816.850648
 42
-0.053639
  0
VERTEX
  8
0
 10
893.018959
 20
813.020618
 42
-0.145136
  0
VERTEX
  8
0
 10
890.945489
 20
810.970827
 42
-0.049318
  0
VERTEX
  8
0
 10
890.045601
 20
810.597932
 42
-0.022708
  0
VERTEX
  8
0
 10
888.814990
 20
810.285180
 42
-0.022231
  0
VERTEX
  8
0
 10
887.480016
 20
810.071099
 42
-0.028646
  0
VERTEX
  8
0
 10
886.240055
 20
810.000000
 42
-0.121514
  0
VERTEX
  8
0
 10
883.236908
 20
810.740787
 42
-0.111764
  0
VERTEX
  8
0
 10
880.813976
 20
812.807779
 42
-0.081375
  0
VERTEX
  8
0
 10
878.982423
 20
816.330053
 42
-0.036885
  0
VERTEX
  8
0
 10
877.726043
 20
821.389862
 42
-0.041004
  0
VERTEX
  8
0
 10
877.159696
 20
827.832236
 42
-0.039161
  0
VERTEX
  8
0
 10
877.635829
 20
834.382608
 42
-0.041660
  0
VERTEX
  8
0
 10
878.985865
 20
840.043447
 42
-0.109637
  0
VERTEX
  8
0
 10
881.103470
 20
843.610138
 42
-0.090697
  0
VERTEX
  8
0
 10
883.150480
 20
845.120614
 42
-0.078061
  0
VERTEX
  8
0
 10
885.709445
 20
845.909395
 42
-0.076667
  0
VERTEX
  8
0
 10
888.430372
 20
845.882621
 42
-0.082316
  0
SEQEND
  0
POLYLINE
  8
0
 66
1
 70
1
  0
VERTEX
  8
0
 10
949.750000
 20
848.341518
 42
0.045754
  0
VERTEX
  8
0
 10
947.522260
 20
847.168598
 42
0.114429
  0
VERTEX
  8
0
 10
946.254427
 20
845.852855
 42
0.209345
  0
VERTEX
  8
0
 10
946.096686
 20
844.610156
 42
0.184748
  0
VERTEX
  8
0
 10
946.893766
 20
843.565656
 42
0.165640
  0
VERTEX
  8
0
 10
947.450226
 20
843.438136
 42
0.026144
  0
VERTEX
  8
0
 10
948.574885
 20
843.614214
 42
0.026613
  0
VERTEX
  8
0
 10
949.927651
 20
843.975225
 42
0.020446
  0
VERTEX
  8
0
 10
951.361647
 20
844.506639
 42
-0.069180
  0
VERTEX
  8
0
 10
957.109059
 20
846.021053
 42
-0.106020
  0
VERTEX
  8
0
 10
962.219055
 20
845.550877
 42
-0.143423
  0
VERTEX
  8
0
 10
965.680509
 20
843.243714
 42
-0.176289
  0
VERTEX
  8
0
 10
967.000000
 20
839.617610
 42
-0.104466
  0
VERTEX
  8
0
 10
966.340381
 20
836.494958
 42
-0.114203
  0
VERTEX
  8
0
 10
964.483105
 20
834.020001
 42
-0.094071
  0
VERTEX
  8
0
 10
961.397245
 20
832.285745
 42
-0.051679
  0
VERTEX
  8
0
 10
957.154929
 20
831.331943
 42
0.014614
  0
VERTEX
  8
0
 10
954.563034
 20
830.947870
 42
0.062973
  0
VERTEX
  8
0
 10
953.078123
 20
830.485087
 42
0.125176
  0
VERTEX
  8
0
 10
952.291225
 20
829.852708
 42
0.162607
  0
VERTEX
  8
0
 10
952.000000
 20
828.980900
 42
0.174781
  0
VERTEX
  8
0
 10
952.319279
 20
828.095433
 42
0.133117
  0
VERTEX
  8
0
 10
953.168378
 20
827.496930
 42
0.058528
  0
VERTEX
  8
0
 10
954.828530
 20
827.104038
 42
0.010814
  0
VERTEX
  8
0
 10
957.962526
 20
826.809092
 42
-0.038280
  0
VERTEX
  8
0
 10
962.748751
 20
826.091938
 42
-0.110107
  0
VERTEX
  8
0
 10
965.762576
 20
824.656173
 42
-0.143367
  0
VERTEX
  8
0
 10
967.423899
 20
822.339342
 42
-0.084524
  0
VERTEX
  8
0
 10
968.000000
 20
818.955796
 42
-0.040541
  0
VERTEX
  8
0
 10
967.865439
 20
817.298964
 42
-0.035432
  0
VERTEX
  8
0
 10
967.464049
 20
815.606870
 42
-0.036690
  0
VERTEX
  8
0
 10
966.853040
 20
814.064093
 42
-0.057542
  0
VERTEX
  8
0
 10
966.089552
 20
812.860784
 42
-0.063794
  0
VERTEX
  8
0
 10
964.772511
 20
811.601385
 42
-0.093357
  0
VERTEX
  8
0
 10
963.331595
 20
810.906339
 42
-0.055448
  0
VERTEX
  8
0
 10
961.226445
 20
810.582829
 42
-0.010516
  0
VERTEX
  8
0
 10
957.339552
 20
810.502479
 42
-0.011392
  0
VERTEX
  8
0
 10
954.512970
 20
810.567913
 42
-0.011196
  0
VERTEX
  8
0
 10
951.675866
 20
810.762045
 42
-0.011136
  0
VERTEX
  8
0
 10
949.198286
 20
811.043163
 42
-0.041226
  0
VERTEX
  8
0
 10
947.663394
 20
811.382624
 42
0.015301
  0
VERTEX
  8
0
 10
945.965106
 20
811.851663
 42
0.194364
  0
VERTEX
  8
0
 10
945.322490
 20
811.757776
 42
0.273316
  0
VERTEX
  8
0
 10
945.049754
 20
811.268101
 42
0.029384
  0
VERTEX
  8
0
 10
945.163394
 20
809.921139
 42
0.159998
  0
VERTEX
  8
0
 10
946.040851
 20
808.151109
 42
0.119869
  0
VERTEX
  8
0
 10
947.902688
 20
806.997625
 42
0.060975
  0
VERTEX
  8
0
 10
951.200196
 20
806.348852
 42
0.014193
  0
VERTEX
  8
0
 10
956.848871
 20
806.099680
 42
0.054165
  0
VERTEX
  8
0
 10
964.050376
 20
806.767909
 42
0.112372
  0
VERTEX
  8
0
 10
969.166144
 20
809.080481
 42
0.133442
  0
VERTEX
  8
0
 10
972.237007
 20
813.060867
 42
0.092995
  0
VERTEX
  8
0
 10
973.405575
 20
818.643407
 42
0.026235
  0
VERTEX
  8
0
 10
973.324846
 20
821.199770
 42
0.079919
  0
VERTEX
  8
0
 10
972.907240
 20
822.880553
 42
0.081636
  0
VERTEX
  8
0
 10
971.989172
 20
824.325752
 42
0.028168
  0
VERTEX
  8
0
 10
970.234223
 20
826.081497
 42
0.029151
  0
VERTEX
  8
0
 10
968.819750
 20
827.204465
 42
0.028351
  0
VERTEX
  8
0
 10
967.271466
 20
828.166652
 42
0.029557
  0
VERTEX
  8
0
 10
965.815991
 20
828.852326
 42
0.086381
  0
VERTEX
  8
0
 10
964.734223
 20
829.081574
 42
-0.020013
  0
VERTEX
  8
0
 10
963.576522
 20
829.170330
 42
-0.553563
  0
VERTEX
  8
0
 10
963.468692
 20
829.397540
 42
-0.143377
  0
VERTEX
  8
0
 10
963.854165
 20
829.734227
 42
-0.005070
  0
VERTEX
  8
0
 10
965.673417
 20
830.553193
 42
0.061536
  0
VERTEX
  8
0
 10
968.380810
 20
832.160558
 42
0.078028
  0
VERTEX
  8
0
 10
970.374299
 20
834.273279
 42
0.080330
  0
VERTEX
  8
0
 10
971.584902
 20
836.842659
 42
0.070115
  0
VERTEX
  8
0
 10
972.000000
 20
839.788248
 42
0.047897
  0
VERTEX
  8
0
 10
971.714280
 20
842.764034
 42
0.082279
  0
VERTEX
  8
0
 10
970.848994
 20
845.093692
 42
0.086231
  0
VERTEX
  8
0
 10
969.313506
 20
846.947120
 42
0.057477
  0
VERTEX
  8
0
 10
967.020016
 20
848.489650
 42
0.084918
  0
VERTEX
  8
0
 10
963.591252
 20
849.579740
 42
0.036758
  0
VERTEX
  8
0
 10
958.796933
 20
849.891359
 42
0.036499
  0
VERTEX
  8
0
 10
953.819115
 20
849.484547
 42
0.059739
  0
SEQEND
  0
POLYLINE
  8
0
 66
1
 70
1
  0
VERTEX
  8
0
 10
1062.775141
 20
848.497365
 42
0.057923
  0
VERTEX
  8
0
 10
1060.555096
 20
846.883083
 42
0.085209
  0
VERTEX
  8
0
 10
1059.086535
 20
844.976582
 42
0.078877
  0
VERTEX
  8
0
 10
1058.267422
 20
842.576775
 42
0.042900
  0
VERTEX
  8
0
 10
1058.000000
 20
839.465741
 42
0.046058
  0
VERTEX
  8
0
 10
1058.183056
 20
837.482725
 42
0.068146
  0
VERTEX
  8
0
 10
1058.731940
 20
835.827429
 42
0.057991
  0
VERTEX
  8
0
 10
1059.780375
 20
834.199314
 42
0.024363
  0
VERTEX
  8
0
 10
1061.533333
 20
832.266667
 42
-0.006290
  0
VERTEX
  8
0
 10
1062.867975
 20
830.898015
 42
-0.010670
  0
VERTEX
  8
0
 10
1063.945521
 20
829.715289
 42
-0.004598
  0
VERTEX
  8
0
 10
1064.806847
 20
828.709871
 42
-0.445980
  0
VERTEX
  8
0
 10
1064.783333
 20
828.542829
 42
0.012033
  0
VERTEX
  8
0
 10
1061.196259
 20
826.003557
 42
0.044592
  0
VERTEX
  8
0
 10
1059.131248
 20
824.158532
 42
0.064809
  0
VERTEX
  8
0
 10
1057.843966
 20
822.366918
 42
0.050669
  0
VERTEX
  8
0
 10
1056.927304
 20
820.151699
 42
0.118207
  0
VERTEX
  8
0
 10
1056.617438
 20
814.601749
 42
0.147294
  0
VERTEX
  8
0
 10
1058.955348
 20
810.022328
 42
0.126378
  0
VERTEX
  8
0
 10
1063.789762
 20
807.025931
 42
0.076004
  0
VERTEX
  8
0
 10
1070.500000
 20
806.000000
 42
0.067032
  0
VERTEX
  8
0
 10
1076.536103
 20
806.812878
 42
0.106820
  0
VERTEX
  8
0
 10
1081.136217
 20
809.211028
 42
0.120054
  0
VERTEX
  8
0
 10
1083.988709
 20
813.054739
 42
0.100202
  0
VERTEX
  8
0
 10
1085.000000
 20
818.050340
 42
0.121333
  0
VERTEX
  8
0
 10
1084.354390
 20
820.671665
 42
0.046054
  0
VERTEX
  8
0
 10
1082.291009
 20
823.855576
 42
0.046026
  0
VERTEX
  8
0
 10
1079.613034
 20
826.678559
 42
0.095197
  0
VERTEX
  8
0
 10
1077.000000
 20
828.209385
 42
-0.263365
  0
VERTEX
  8
0
 10
1076.585154
 20
828.686560
 42
-0.190281
  0
VERTEX
  8
0
 10
1076.710874
 20
829.395697
 42
-0.062433
  0
VERTEX
  8
0
 10
1077.598011
 20
830.501232
 42
-0.012197
  0
VERTEX
  8
0
 10
1079.477273
 20
832.236095
 42
0.020351
  0
VERTEX
  8
0
 10
1081.636149
 20
834.295283
 42
0.072077
  0
VERTEX
  8
0
 10
1082.752613
 20
835.844608
 42
0.084932
  0
VERTEX
  8
0
 10
1083.287289
 20
837.507672
 42
0.035416
  0
VERTEX
  8
0
 10
1083.454545
 20
839.865996
 42
0.086262
  0
VERTEX
  8
0
 10
1082.728522
 20
844.042948
 42
0.132230
  0
VERTEX
  8
0
 10
1080.644781
 20
847.042634
 42
0.111971
  0
VERTEX
  8
0
 10
1077.041412
 20
848.908160
 42
0.051177
  0
VERTEX
  8
0
 10
1071.776343
 20
849.717059
 42
0.016704
  0
VERTEX
  8
0
 10
1068.807522
 20
849.766860
 42
0.029521
  0
VERTEX
  8
0
 10
1066.364897
 20
849.581703
 42
0.035980
  0
VERTEX
  8
0
 10
1064.369289
 20
849.163418
 42
0.058680
  0
SEQEND
  0
POLYLINE
  8
0
 66
1
 70
1
  0
VERTEX
  8
0
 10
1077.000000
 20
844.000000
 42
-0.108285
  0
VERTEX
  8
0
 10
1078.757006
 20
841.256832
 42
-0.146480
  0
VERTEX
  8
0
 10
1078.941489
 20
838.334699
 42
-0.126813
  0
VERTEX
  8
0
 10
1077.456196
 20
835.482572
 42
-0.071325
  0
VERTEX
  8
0
 10
1074.440991
 20
832.963530
 42
-0.060512
  0
VERTEX
  8
0
 10
1071.954262
 20
831.814932
 42
-0.125010
  0
VERTEX
  8
0
 10
1069.831817
 20
831.680843
 42
-0.101592
  0
VERTEX
  8
0
 10
1067.616015
 20
832.586808
 42
-0.031679
  0
VERTEX
  8
0
 10
1064.750000
 20
834.783487
 42
-0.135857
  0
VERTEX
  8
0
 10
1063.372302
 20
836.870565
 42
-0.090814
  0
VERTEX
  8
0
 10
1062.992617
 20
839.724648
 42
-0.091066
  0
VERTEX
  8
0
 10
1063.648817
 20
842.520808
 42
-0.137773
  0
VERTEX
  8
0
 10
1065.222506
 20
844.443296
 42
-0.097419
  0
VERTEX
  8
0
 10
1067.963474
 20
845.656789
 42
-0.065138
  0
VERTEX
  8
0
 10
1071.389668
 20
845.974515
 42
-0.066738
  0
VERTEX
  8
0
 10
1074.678052
 20
845.406998
 42
-0.120889
  0
SEQEND
  0
POLYLINE
  8
0
 66
1
 70
1
  0
VERTEX
  8
0
 10
1073.299660
 20
825.379411
 42
-0.026229
  0
VERTEX
  8
0
 10
1076.598146
 20
823.485635
 42
-0.074536
  0
VERTEX
  8
0
 10
1078.581535
 20
821.737536
 42
-0.099821
  0
VERTEX
  8
0
 10
1079.636619
 20
819.808926
 42
-0.075545
  0
VERTEX
  8
0
 10
1080.000000
 20
817.417593
 42
-0.192157
  0
VERTEX
  8
0
 10
1078.281913
 20
813.112130
 42
-0.130738
  0
VERTEX
  8
0
 10
1073.735993
 20
810.316084
 42
-0.119873
  0
VERTEX
  8
0
 10
1068.073838
 20
810.016749
 42
-0.151035
  0
VERTEX
  8
0
 10
1063.454545
 20
812.454545
 42
-0.107130
  0
VERTEX
  8
0
 10
1061.426570
 20
815.604910
 42
-0.146468
  0
VERTEX
  8
0
 10
1061.199813
 20
818.952233
 42
-0.128075
  0
VERTEX
  8
0
 10
1062.883714
 20
822.202617
 42
-0.072750
  0
VERTEX
  8
0
 10
1066.313822
 20
825.049773
 42
-0.006775
  0
VERTEX
  8
0
 10
1068.866593
 20
826.559245
 42
-0.118881
  0
VERTEX
  8
0
 10
1069.783456
 20
826.826672
 42
-0.122256
  0
VERTEX
  8
0
 10
1070.713165
 20
826.641931
 42
-0.007320
  0
SEQEND
  0
POLYLINE
  8
0
 66
1
 70
1
  0
VERTEX
  8
0
 10
1135.762571
 20
848.434612
 42
0.124929
  0
VERTEX
  8
0
 10
1132.373059
 20
845.304003
 42
0.080430
  0
VERTEX
  8
0
 10
1130.200172
 20
840.385567
 42
0.075798
  0
VERTEX
  8
0
 10
1129.608152
 20
834.723419
 42
0.087736
  0
VERTEX
  8
0
 10
1130.801439
 20
829.440571
 42
0.140151
  0
VERTEX
  8
0
 10
1134.033850
 20
825.407683
 42
0.107011
  0
VERTEX
  8
0
 10
1139.260621
 20
823.176640
 42
0.102996
  0
VERTEX
  8
0
 10
1145.116503
 20
823.264731
 42
0.120375
  0
VERTEX
  8
0
 10
1150.087378
 20
825.726978
 42
0.000000
  0
VERTEX
  8
0
 10
1153.328207
 20
828.453955
 42
0.000000
  0
VERTEX
  8
0
 10
1152.635500
 20
824.122005
 42
-0.061285
  0
VERTEX
  8
0
 10
1150.855702
 20
817.955376
 42
-0.102468
  0
VERTEX
  8
0
 10
1147.785088
 20
813.539675
 42
-0.110394
  0
VERTEX
  8
0
 10
1143.396794
 20
810.914846
 42
-0.079760
  0
VERTEX
  8
0
 10
1137.750000
 20
810.003738
 42
0.012680
  0
VERTEX
  8
0
 10
1135.106672
 20
809.934611
 42
0.087141
  0
VERTEX
  8
0
 10
1133.844217
 20
809.645204
 42
0.188929
  0
VERTEX
  8
0
 10
1133.224446
 20
809.041042
 42
0.106574
  0
VERTEX
  8
0
 10
1133.000000
 20
808.000000
 42
0.110969
  0
VERTEX
  8
0
 10
1133.235175
 20
806.953403
 42
0.189839
  0
VERTEX
  8
0
 10
1133.879015
 20
806.349362
 42
0.083342
  0
VERTEX
  8
0
 10
1135.201566
 20
806.064697
 42
0.011427
  0
VERTEX
  8
0
 10
1138.032119
 20
806.000000
 42
0.085699
  0
VERTEX
  8
0
 10
1146.611864
 20
807.481424
 42
0.138395
  0
VERTEX
  8
0
 10
1152.615915
 20
811.740644
 42
0.116527
  0
VERTEX
  8
0
 10
1156.155491
 20
819.129406
 42
0.050849
  0
VERTEX
  8
0
 10
1157.390553
 20
830.000000
 42
0.007732
  0
VERTEX
  8
0
 10
1157.369128
 20
835.434059
 42
0.036905
  0
VERTEX
  8
0
 10
1157.080541
 20
838.522097
 42
0.057533
  0
VERTEX
  8
0
 10
1156.408205
 20
840.843601
 42
0.039872
  0
VERTEX
  8
0
 10
1155.153457
 20
843.274244
 42
0.031612
  0
VERTEX
  8
0
 10
1154.045908
 20
844.827456
 42
0.024505
  0
VERTEX
  8
0
 10
1152.657908
 20
846.373308
 42
0.025066
  0
VERTEX
  8
0
 10
1151.214430
 20
847.691407
 42
0.053214
  0
VERTEX
  8
0
 10
1149.953117
 20
848.524244
 42
0.076966
  0
VERTEX
  8
0
 10
1146.814542
 20
849.576959
 42
0.044105
  0
VERTEX
  8
0
 10
1142.825251
 20
849.904161
 42
0.044159
  0
VERTEX
  8
0
 10
1138.851412
 20
849.527206
 42
0.078738
  0
SEQEND
  0
POLYLINE
  8
0
 66
1
 70
1
  0
VERTEX
  8
0
 10
1148.150400
 20
844.919509
 42
-0.116336
  0
VERTEX
  8
0
 10
1149.790528
 20
843.472194
 42
-0.040820
  0
VERTEX
  8
0
 10
1151.401666
 20
840.750842
 42
-0.040870
  0
VERTEX
  8
0
 10
1152.606048
 20
837.657187
 42
-0.072517
  0
VERTEX
  8
0
 10
1153.000000
 20
834.955196
 42
-0.147336
  0
VERTEX
  8
0
 10
1152.202557
 20
832.307745
 42
-0.072113
  0
VERTEX
  8
0
 10
1149.832957
 20
829.655172
 42
-0.069308
  0
VERTEX
  8
0
 10
1146.669042
 20
827.674588
 42
-0.105619
  0
VERTEX
  8
0
 10
1143.511182
 20
827.000000
 42
-0.041602
  0
VERTEX
  8
0
 10
1140.334475
 20
827.264775
 42
-0.090544
  0
VERTEX
  8
0
 10
1138.042207
 20
828.093497
 42
-0.101279
  0
VERTEX
  8
0
 10
1136.350054
 20
829.605931
 42
-0.061792
  0
VERTEX
  8
0
 10
1135.022733
 20
831.945118
 42
-0.145360
  0
VERTEX
  8
0
 10
1134.388236
 20
838.023952
 42
-0.152817
  0
VERTEX
  8
0
 10
1137.202656
 20
843.326171
 42
-0.160045
  0
VERTEX
  8
0
 10
1142.416881
 20
845.923390
 42
-0.160386
  0
SEQEND
  0
POLYLINE
  8
0
 66
1
 70
1
  0
VERTEX
  8
0
 10
1171.365039
 20
848.140326
 42
0.103195
  0
VERTEX
  8
0
 10
1168.303674
 20
845.189988
 42
0.070615
  0
VERTEX
  8
0
 10
1166.165561
 20
840.843994
 42
0.054113
  0
VERTEX
  8
0
 10
1164.926692
 20
834.976611
 42
0.027275
  0
VERTEX
  8
0
 10
1164.582742
 20
827.411233
 42
0.042296
  0
VERTEX
  8
0
 10
1165.499496
 20
817.650178
 42
0.106990
  0
VERTEX
  8
0
 10
1168.204462
 20
811.094911
 42
0.141934
  0
VERTEX
  8
0
 10
1172.809089
 20
807.338564
 42
0.100916
  0
VERTEX
  8
0
 10
1179.373615
 20
806.000000
 42
0.078880
  0
VERTEX
  8
0
 10
1183.520971
 20
806.658380
 42
0.097269
  0
VERTEX
  8
0
 10
1186.934249
 20
808.562230
 42
0.089099
  0
VERTEX
  8
0
 10
1189.582892
 20
811.769145
 42
0.056044
  0
VERTEX
  8
0
 10
1191.483547
 20
816.256550
 42
0.058371
  0
VERTEX
  8
0
 10
1192.933436
 20
824.599716
 42
0.045929
  0
VERTEX
  8
0
 10
1192.599885
 20
833.774545
 42
0.047895
  0
VERTEX
  8
0
 10
1190.741419
 20
841.937733
 42
0.124904
  0
VERTEX
  8
0
 10
1187.525755
 20
846.975804
 42
0.108343
  0
VERTEX
  8
0
 10
1184.261333
 20
848.925255
 42
0.062723
  0
VERTEX
  8
0
 10
1179.759164
 20
849.824853
 42
0.061989
  0
VERTEX
  8
0
 10
1175.101251
 20
849.582963
 42
0.096691
  0
SEQEND
  0
POLYLINE
  8
0
 66
1
 70
1
  0
VERTEX
  8
0
 10
1182.945489
 20
845.029173
 42
-0.145136
  0
VERTEX
  8
0
 10
1185.018959
 20
842.979382
 42
-0.053639
  0
VERTEX
  8
0
 10
1186.618924
 20
839.149352
 42
-0.043923
  0
VERTEX
  8
0
 10
1187.658486
 20
834.040532
 42
-0.028246
  0
VERTEX
  8
0
 10
1188.000000
 20
828.000000
 42
-0.028246
  0
VERTEX
  8
0
 10
1187.658486
 20
821.959468
 42
-0.043923
  0
VERTEX
  8
0
 10
1186.618924
 20
816.850648
 42
-0.053639
  0
VERTEX
  8
0
 10
1185.018959
 20
813.020618
 42
-0.145136
  0
VERTEX
  8
0
 10
1182.945489
 20
810.970827
 42
-0.049318
  0
VERTEX
  8
0
 10
1182.045601
 20
810.597932
 42
-0.022708
  0
VERTEX
  8
0
 10
1180.814990
 20
810.285180
 42
-0.022231
  0
VERTEX
  8
0
 10
1179.480016
 20
810.071099
 42
-0.028646
  0
VERTEX
  8
0
 10
1178.240055
 20
810.000000
 42
-0.121514
  0
VERTEX
  8
0
 10
1175.236908
 20
810.740787
 42
-0.111764
  0
VERTEX
  8
0
 10
1172.813976
 20
812.807779
 42
-0.081375
  0
VERTEX
  8
0
 10
1170.982423
 20
816.330053
 42
-0.036885
  0
VERTEX
  8
0
 10
1169.726043
 20
821.389862
 42
-0.041004
  0
VERTEX
  8
0
 10
1169.159696
 20
827.832236
 42
-0.039161
  0
VERTEX
  8
0
 10
1169.635829
 20
834.382608
 42
-0.041660
  0
VERTEX
  8
0
 10
1170.985865
 20
840.043447
 42
-0.109637
  0
VERTEX
  8
0
 10
1173.103470
 20
843.610138
 42
-0.090697
  0
VERTEX
  8
0
 10
1175.150480
 20
845.120614
 42
-0.078061
  0
VERTEX
  8
0
 10
1177.709445
 20
845.909395
 42
-0.076667
  0
VERTEX
  8
0
 10
1180.430372
 20
845.882621
 42
-0.082316
  0
SEQEND
  0
POLYLINE
  8
0
 66
1
 70
1
  0
VERTEX
  8
0
 10
1204.250000
 20
847.951196
 42
0.014959
  0
VERTEX
  8
0
 10
1201.367310
 20
846.375748
 42
0.122469
  0
VERTEX
  8
0
 10
1200.303214
 20
845.336037
 42
0.278336
  0
VERTEX
  8
0
 10
1200.292998
 20
844.347455
 42
0.086584
  0
VERTEX
  8
0
 10
1201.296451
 20
843.168930
 42
0.116643
  0
VERTEX
  8
0
 10
1202.073794
 20
842.783324
 42
0.108014
  0
VERTEX
  8
0
 10
1202.964963
 20
842.771685
 42
0.070980
  0
VERTEX
  8
0
 10
1204.073816
 20
843.168745
 42
0.024311
  0
VERTEX
  8
0
 10
1205.546451
 20
844.039896
 42
-0.081151
  0
VERTEX
  8
0
 10
1208.805120
 20
845.498470
 42
-0.066310
  0
VERTEX
  8
0
 10
1212.598527
 20
845.980840
 42
-0.069699
  0
VERTEX
  8
0
 10
1216.180852
 20
845.457304
 42
-0.116963
  0
VERTEX
  8
0
 10
1218.811439
 20
843.961045
 42
-0.120819
  0
VERTEX
  8
0
 10
1220.378770
 20
841.570353
 42
-0.079385
  0
VERTEX
  8
0
 10
1220.975303
 20
838.317844
 42
-0.072292
  0
VERTEX
  8
0
 10
1220.538480
 20
834.736710
 42
-0.070585
  0
VERTEX
  8
0
 10
1219.099907
 20
831.396260
 42
-0.036650
  0
VERTEX
  8
0
 10
1217.855221
 20
829.655919
 42
-0.005596
  0
VERTEX
  8
0
 10
1215.089050
 20
826.406987
 42
-0.006234
  0
VERTEX
  8
0
 10
1211.727850
 20
822.643330
 42
-0.005368
  0
VERTEX
  8
0
 10
1208.103645
 20
818.769942
 42
0.007934
  0
VERTEX
  8
0
 10
1204.615568
 20
815.003473
 42
0.011577
  0
VERTEX
  8
0
 10
1201.674196
 20
811.567664
 42
0.007194
  0
VERTEX
  8
0
 10
1199.340973
 20
808.625530
 42
0.165510
  0
VERTEX
  8
0
 10
1199.000000
 20
807.623682
 42
0.308115
  0
VERTEX
  8
0
 10
1199.597541
 20
806.746064
 42
0.066032
  0
VERTEX
  8
0
 10
1201.482580
 20
806.277995
 42
0.024952
  0
VERTEX
  8
0
 10
1205.199633
 20
806.048662
 42
0.002931
  0
VERTEX
  8
0
 10
1213.500000
 20
806.000000
 42
0.002322
  0
VERTEX
  8
0
 10
1222.635485
 20
806.042421
 42
0.031956
  0
VERTEX
  8
0
 10
1225.937500
 20
806.284483
 42
0.123223
  0
VERTEX
  8
0
 10
1227.431338
 20
806.885087
 42
0.240299
  0
VERTEX
  8
0
 10
1228.000000
 20
808.000000
 42
0.200111
  0
VERTEX
  8
0
 10
1227.543078
 20
809.095955
 42
0.151374
  0
VERTEX
  8
0
 10
1226.375000
 20
809.704545
 42
0.041619
  0
VERTEX
  8
0
 10
1223.800382
 20
809.954193
 42
0.003368
  0
VERTEX
  8
0
 10
1217.000000
 20
810.000000
 42
-0.004808
  0
VERTEX
  8
0
 10
1212.782145
 20
810.040560
 42
-0.008005
  0
VERTEX
  8
0
 10
1209.231250
 20
810.165749
 42
-0.002556
  0
VERTEX
  8
0
 10
1206.214682
 20
810.335951
 42
-0.396321
  0
VERTEX
  8
0
 10
1206.000000
 20
810.564253
 42
-0.187812
  0
VERTEX
  8
0
 10
1206.146404
 20
810.940267
 42
-0.001487
  0
VERTEX
  8
0
 10
1208.374136
 20
813.352897
 42
-0.005130
  0
VERTEX
  8
0
 10
1210.984070
 20
816.105450
 42
-0.003243
  0
VERTEX
  8
0
 10
1214.082167
 20
819.265152
 42
0.015546
  0
VERTEX
  8
0
 10
1219.920694
 20
825.520459
 42
0.043861
  0
VERTEX
  8
0
 10
1223.450865
 20
830.339923
 42
0.062280
  0
VERTEX
  8
0
 10
1225.352361
 20
834.596414
 42
0.074067
  0
VERTEX
  8
0
 10
1226.000000
 20
838.944385
 42
0.037097
  0
VERTEX
  8
0
 10
1225.844657
 20
841.035233
 42
0.057068
  0
VERTEX
  8
0
 10
1225.374598
 20
842.785774
 42
0.055459
  0
VERTEX
  8
0
 10
1224.509021
 20
844.419756
 42
0.032826
  0
VERTEX
  8
0
 10
1223.148650
 20
846.159661
 42
0.034785
  0
VERTEX
  8
0
 10
1221.369456
 20
847.891956
 42
0.078906
  0
VERTEX
  8
0
 10
1219.768157
 20
848.862771
 42
0.063945
  0
VERTEX
  8
0
 10
1217.740368
 20
849.401799
 42
0.016931
  0
VERTEX
  8
0
 10
1214.398650
 20
849.731136
 42
0.019376
  0
VERTEX
  8
0
 10
1211.272156
 20
849.811284
 42
0.040147
  0
VERTEX
  8
0
 10
1208.842415
 20
849.583759
 42
0.044420
  0
VERTEX
  8
0
 10
1206.641132
 20
848.992501
 42
0.029775
  0
SEQEND
  0
POLYLINE
  8
0
 66
1
 70
1
  0
VERTEX
  8
0
 10
1274.502836
 20
847.703325
 42
0.041068
  0
VERTEX
  8
0
 10
1272.690139
 20
846.470109
 42
0.030899
  0
VERTEX
  8
0
 10
1270.910885
 20
844.841358
 42
0.030255
  0
VERTEX
  8
0
 10
1269.303038
 20
842.960343
 42
0.034094
  0
VERTEX
  8
0
 10
1268.002836
 20
840.969776
 42
0.033338
  0
VERTEX
  8
0
 10
1266.642540
 20
838.108557
 42
0.052920
  0
VERTEX
  8
0
 10
1265.916015
 20
835.497673
 42
0.034456
  0
VERTEX
  8
0
 10
1265.584892
 20
832.086836
 42
0.006973
  0
VERTEX
  8
0
 10
1265.500000
 20
826.000000
 42
0.006130
  0
VERTEX
  8
0
 10
1265.574914
 20
819.889799
 42
0.035785
  0
VERTEX
  8
0
 10
1265.883189
 20
816.690438
 42
0.063344
  0
VERTEX
  8
0
 10
1266.563562
 20
814.444246
 42
0.049774
  0
VERTEX
  8
0
 10
1267.828838
 20
812.234911
 42
0.056272
  0
VERTEX
  8
0
 10
1270.527704
 20
809.231206
 42
0.076951
  0
VERTEX
  8
0
 10
1273.579248
 20
807.263280
 42
0.075889
  0
VERTEX
  8
0
 10
1277.116591
 20
806.293083
 42
0.053048
  0
VERTEX
  8
0
 10
1281.258507
 20
806.250817
 42
0.071831
  0
VERTEX
  8
0
 10
1285.851831
 20
807.371034
 42
0.102135
  0
VERTEX
  8
0
 10
1289.342155
 20
809.688794
 42
0.101521
  0
VERTEX
  8
0
 10
1291.643303
 20
813.211139
 42
0.070252
  0
VERTEX
  8
0
 10
1292.759884
 20
817.852868
 42
0.025250
  0
VERTEX
  8
0
 10
1292.955417
 20
822.165874
 42
0.063332
  0
VERTEX
  8
0
 10
1292.542686
 20
825.282099
 42
0.077350
  0
VERTEX
  8
0
 10
1291.434852
 20
827.813210
 42
0.054664
  0
VERTEX
  8
0
 10
1289.489395
 20
830.237878
 42
0.116370
  0
VERTEX
  8
0
 10
1285.342269
 20
832.801663
 42
0.088189
  0
VERTEX
  8
0
 10
1280.032629
 20
833.582859
 42
0.091705
  0
VERTEX
  8
0
 10
1274.966366
 20
832.488494
 42
0.141978
  0
VERTEX
  8
0
 10
1271.503101
 20
829.700965
 42
-0.007812
  0
VERTEX
  8
0
 10
1270.498646
 20
828.313551
 42
-0.405542
  0
VERTEX
  8
0
 10
1270.199811
 20
828.265943
 42
-0.239753
  0
VERTEX
  8
0
 10
1270.018254
 20
828.608296
 42
-0.004247
  0
VERTEX
  8
0
 10
1270.000000
 20
830.757257
 42
-0.084339
  0
VERTEX
  8
0
 10
1271.051542
 20
836.946946
 42
-0.109534
  0
VERTEX
  8
0
 10
1274.073562
 20
841.823775
 42
-0.111182
  0
VERTEX
  8
0
 10
1278.833240
 20
844.917644
 42
-0.088967
  0
VERTEX
  8
0
 10
1284.868034
 20
846.000000
 42
0.011039
  0
VERTEX
  8
0
 10
1287.764598
 20
846.063960
 42
0.082046
  0
VERTEX
  8
0
 10
1289.108504
 20
846.347429
 42
0.189945
  0
VERTEX
  8
0
 10
1289.760966
 20
846.951646
 42
0.112560
  0
VERTEX
  8
0
 10
1290.000000
 20
848.000000
 42
0.122191
  0
VERTEX
  8
0
 10
1289.737601
 20
849.057695
 42
0.190314
  0
VERTEX
  8
0
 10
1289.033306
 20
849.660993
 42
0.074871
  0
VERTEX
  8
0
 10
1287.559947
 20
849.933241
 42
0.009030
  0
VERTEX
  8
0
 10
1284.250000
 20
849.983550
 42
0.022431
  0
VERTEX
  8
0
 10
1281.371835
 20
849.846115
 42
0.034323
  0
VERTEX
  8
0
 10
1278.906960
 20
849.445334
 42
0.037240
  0
VERTEX
  8
0
 10
1276.674556
 20
848.744362
 42
0.034166
  0
SEQEND
  0
POLYLINE
  8
0
 66
1
 70
1
  0
VERTEX
  8
0
 10
1286.250000
 20
826.919630
 42
-0.119037
  0
VERTEX
  8
0
 10
1287.744566
 20
823.811703
 42
-0.065079
  0
VERTEX
  8
0
 10
1288.089939
 20
819.573326
 42
-0.065115
  0
VERTEX
  8
0
 10
1287.334599
 20
815.391925
 42
-0.119726
  0
VERTEX
  8
0
 10
1285.545455
 20
812.454545
 42
-0.145539
  0
VERTEX
  8
0
 10
1281.069339
 20
810.030409
 42
-0.158554
  0
VERTEX
  8
0
 10
1276.162194
 20
810.558432
 42
-0.144460
  0
VERTEX
  8
0
 10
1272.178249
 20
813.973171
 42
-0.116271
  0
VERTEX
  8
0
 10
1270.268808
 20
819.307498
 42
-0.054216
  0
VERTEX
  8
0
 10
1270.255411
 20
822.729234
 42
-0.096844
  0
VERTEX
  8
0
 10
1271.077161
 20
825.409472
 42
-0.102341
  0
VERTEX
  8
0
 10
1272.806857
 20
827.485877
 42
-0.066096
  0
VERTEX
  8
0
 10
1275.500000
 20
829.101208
 42
-0.095593
  0
VERTEX
  8
0
 10
1278.120355
 20
829.680742
 42
-0.056880
  0
VERTEX
  8
0
 10
1281.315046
 20
829.403447
 42
-0.057645
  0
VERTEX
  8
0
 10
1284.294348
 20
828.431384
 42
-0.114256
  0
SEQEND
  0
POLYLINE
  8
0
 66
1
 70
1
  0
VERTEX
  8
0
 10
58.750000
 20
837.837719
 42
0.024126
  0
VERTEX
  8
0
 10
56.917052
 20
837.066168
 42
0.161676
  0
VERTEX
  8
0
 10
56.215296
 20
836.389441
 42
0.218038
  0
VERTEX
  8
0
 10
56.169962
 20
835.544785
 42
0.047444
  0
VERTEX
  8
0
 10
56.848281
 20
834.211246
 42
0.107174
  0
VERTEX
  8
0
 10
57.392015
 20
833.660400
 42
0.127701
  0
VERTEX
  8
0
 10
58.082067
 20
833.428398
 42
0.083080
  0
VERTEX
  8
0
 10
59.028265
 20
833.519006
 42
0.025524
  0
VERTEX
  8
0
 10
60.398068
 20
833.961246
 42
-0.051602
  0
VERTEX
  8
0
 10
63.306643
 20
834.735639
 42
-0.044148
  0
VERTEX
  8
0
 10
66.471101
 20
834.953878
 42
-0.046528
  0
VERTEX
  8
0
 10
69.339412
 20
834.630197
 42
-0.109178
  0
VERTEX
  8
0
 10
71.295399
 20
833.750000
 42
-0.076884
  0
VERTEX
  8
0
 10
71.982465
 20
833.051270
 42
-0.034881
  0
VERTEX
  8
0
 10
72.658811
 20
831.957430
 42
-0.033488
  0
VERTEX
  8
0
 10
73.224686
 20
830.680337
 42
-0.039103
  0
VERTEX
  8
0
 10
73.580938
 20
829.402952
 42
0.000000
  0
VERTEX
  8
0
 10
74.188819
 20
826.305904
 42
0.000000
  0
VERTEX
  8
0
 10
67.169423
 20
825.717423
 42
0.027833
  0
VERTEX
  8
0
 10
61.675539
 20
824.947184
 42
0.056082
  0
VERTEX
  8
0
 10
57.511176
 20
823.627038
 42
0.075328
  0
VERTEX
  8
0
 10
54.614453
 20
821.772754
 42
0.122532
  0
VERTEX
  8
0
 10
52.957039
 20
819.387004
 42
0.051438
  0
VERTEX
  8
0
 10
52.131877
 20
816.291812
 42
0.088320
  0
VERTEX
  8
0
 10
52.180952
 20
813.629948
 42
0.090835
  0
VERTEX
  8
0
 10
53.139786
 20
811.199693
 42
0.057171
  0
VERTEX
  8
0
 10
55.043315
 20
808.802839
 42
0.028138
  0
VERTEX
  8
0
 10
56.969796
 20
807.081790
 42
0.094616
  0
VERTEX
  8
0
 10
58.459621
 20
806.298192
 42
0.078875
  0
VERTEX
  8
0
 10
60.277618
 20
806.045499
 42
0.015857
  0
VERTEX
  8
0
 10
63.551005
 20
806.212672
 42
0.022074
  0
VERTEX
  8
0
 10
66.206907
 20
806.551469
 42
0.040866
  0
VERTEX
  8
0
 10
68.310873
 20
807.094767
 42
0.049065
  0
VERTEX
  8
0
 10
70.017335
 20
807.882437
 42
0.055982
  0
VERTEX
  8
0
 10
71.456871
 20
808.959482
 42
0.000000
  0
VERTEX
  8
0
 10
73.898361
 20
811.253143
 42
0.000000
  0
VERTEX
  8
0
 10
74.557589
 20
808.626572
 42
0.046956
  0
VERTEX
  8
0
 10
74.912771
 20
807.621679
 42
0.057396
  0
VERTEX
  8
0
 10
75.431948
 20
806.771555
 42
0.067874
  0
VERTEX
  8
0
 10
76.027327
 20
806.191531
 42
0.160558
  0
VERTEX
  8
0
 10
76.608408
 20
806.000000
 42
0.338481
  0
VERTEX
  8
0
 10
77.331062
 20
806.552510
 42
0.040510
  0
VERTEX
  8
0
 10
77.724073
 20
808.660587
 42
0.021981
  0
VERTEX
  8
0
 10
77.945775
 20
812.389536
 42
0.003857
  0
VERTEX
  8
0
 10
78.000000
 20
819.418213
 42
0.004297
  0
VERTEX
  8
0
 10
77.954808
 20
824.676363
 42
0.006025
  0
VERTEX
  8
0
 10
77.817528
 20
829.370340
 42
0.003732
  0
VERTEX
  8
0
 10
77.625563
 20
833.304944
 42
0.077704
  0
VERTEX
  8
0
 10
77.378819
 20
834.455198
 42
0.195610
  0
VERTEX
  8
0
 10
75.011686
 20
836.982171
 42
0.063105
  0
VERTEX
  8
0
 10
70.022863
 20
838.556393
 42
0.058246
  0
VERTEX
  8
0
 10
64.100716
 20
838.931510
 42
0.074406
  0
SEQEND
  0
POLYLINE
  8
0
 66
1
 70
1
  0
VERTEX
  8
0
 10
73.664603
 20
818.250000
 42
-0.081964
  0
VERTEX
  8
0
 10
72.559820
 20
814.932419
 42
-0.091504
  0
VERTEX
  8
0
 10
70.475220
 20
812.287745
 42
-0.092964
  0
VERTEX
  8
0
 10
67.614326
 20
810.590754
 42
-0.087720
  0
VERTEX
  8
0
 10
64.272977
 20
810.000000
 42
-0.095508
  0
VERTEX
  8
0
 10
60.100422
 20
810.804365
 42
-0.182602
  0
VERTEX
  8
0
 10
57.620247
 20
813.078566
 42
-0.201423
  0
VERTEX
  8
0
 10
57.398717
 20
816.240645
 42
-0.114956
  0
VERTEX
  8
0
 10
59.454545
 20
819.545455
 42
-0.049501
  0
VERTEX
  8
0
 10
61.016835
 20
820.825643
 42
-0.077776
  0
VERTEX
  8
0
 10
62.589451
 20
821.551293
 42
-0.055080
  0
VERTEX
  8
0
 10
64.674257
 20
821.902790
 42
-0.014246
  0
VERTEX
  8
0
 10
68.085388
 20
822.000000
 42
0.000000
  0
VERTEX
  8
0
 10
74.261685
 20
822.000000
 42
0.000000
  0
SEQEND
  0
POLYLINE
  8
0
 66
1
 70
1
  0
VERTEX
  8
0
 10
95.096399
 20
837.735258
 42
0.074889
  0
VERTEX
  8
0
 10
92.241983
 20
835.679226
 42
0.078454
  0
VERTEX
  8
0
 10
90.172763
 20
832.902894
 42
0.067178
  0
VERTEX
  8
0
 10
88.842231
 20
829.255034
 42
0.038019
  0
VERTEX
  8
0
 10
88.186510
 20
824.588145
 42
0.055946
  0
VERTEX
  8
0
 10
88.570791
 20
816.619506
 42
0.111349
  0
VERTEX
  8
0
 10
90.912261
 20
810.786845
 42
0.136631
  0
VERTEX
  8
0
 10
95.132521
 20
807.263200
 42
0.106425
  0
VERTEX
  8
0
 10
101.000000
 20
806.000000
 42
0.025707
  0
VERTEX
  8
0
 10
103.537778
 20
806.130565
 42
0.053301
  0
VERTEX
  8
0
 10
105.475855
 20
806.542250
 42
0.058476
  0
VERTEX
  8
0
 10
107.167260
 20
807.323352
 42
0.037532
  0
VERTEX
  8
0
 10
108.923275
 20
808.588894
 42
0.000000
  0
VERTEX
  8
0
 10
112.000000
 20
811.177787
 42
0.000000
  0
VERTEX
  8
0
 10
112.000000
 20
807.738117
 42
-0.045190
  0
VERTEX
  8
0
 10
111.659279
 20
803.975973
 42
-0.060404
  0
VERTEX
  8
0
 10
110.642817
 20
800.705105
 42
-0.069429
  0
VERTEX
  8
0
 10
109.034321
 20
798.142927
 42
-0.098898
  0
VERTEX
  8
0
 10
106.941243
 20
796.469615
 42
-0.052444
  0
VERTEX
  8
0
 10
104.297747
 20
795.436819
 42
-0.065637
  0
VERTEX
  8
0
 10
101.691364
 20
795.078608
 42
-0.052888
  0
VERTEX
  8
0
 10
98.666631
 20
795.382653
 42
-0.021622
  0
VERTEX
  8
0
 10
94.658931
 20
796.402132
 42
0.005928
  0
VERTEX
  8
0
 10
91.563394
 20
797.293867
 42
0.119601
  0
VERTEX
  8
0
 10
90.591659
 20
797.323563
 42
0.305388
  0
VERTEX
  8
0
 10
90.126812
 20
796.844646
 42
0.044456
  0
VERTEX
  8
0
 10
90.000000
 20
795.421184
 42
0.066254
  0
VERTEX
  8
0
 10
90.154574
 20
794.259778
 42
0.115846
  0
VERTEX
  8
0
 10
90.613496
 20
793.410245
 42
0.103018
  0
VERTEX
  8
0
 10
91.446780
 20
792.790437
 42
0.044996
  0
VERTEX
  8
0
 10
92.750000
 20
792.323147
 42
0.047290
  0
VERTEX
  8
0
 10
96.703041
 20
791.685844
 42
0.024661
  0
VERTEX
  8
0
 10
101.697904
 20
791.605812
 42
0.024316
  0
VERTEX
  8
0
 10
106.518421
 20
792.001555
 42
0.067264
  0
VERTEX
  8
0
 10
109.797158
 20
792.890854
 42
0.110297
  0
VERTEX
  8
0
 10
113.356207
 20
795.425746
 42
0.119630
  0
VERTEX
  8
0
 10
115.370421
 20
799.165286
 42
0.052421
  0
VERTEX
  8
0
 10
116.369039
 20
805.719732
 42
0.006958
  0
VERTEX
  8
0
 10
116.825641
 20
819.750000
 42
0.001492
  0
VERTEX
  8
0
 10
117.022385
 20
832.334290
 42
0.025376
  0
VERTEX
  8
0
 10
116.864707
 20
836.471677
 42
0.107685
  0
VERTEX
  8
0
 10
116.287200
 20
838.316505
 42
0.269471
  0
VERTEX
  8
0
 10
115.111076
 20
839.000000
 42
0.085411
  0
VERTEX
  8
0
 10
114.170201
 20
838.838096
 42
0.101790
  0
VERTEX
  8
0
 10
113.400969
 20
838.373119
 42
0.090464
  0
VERTEX
  8
0
 10
112.814722
 20
837.591906
 42
0.054413
  0
VERTEX
  8
0
 10
112.411126
 20
836.501920
 42
0.000000
  0
VERTEX
  8
0
 10
111.784148
 20
834.003840
 42
0.000000
  0
VERTEX
  8
0
 10
108.815349
 20
836.501920
 42
0.089310
  0
VERTEX
  8
0
 10
105.922455
 20
838.163507
 42
0.063473
  0
VERTEX
  8
0
 10
102.261443
 20
838.968492
 42
0.062415
  0
VERTEX
  8
0
 10
98.445925
 20
838.834857
 42
0.078924
  0
SEQEND
  0
POLYLINE
  8
0
 66
1
 70
1
  0
VERTEX
  8
0
 10
108.479181
 20
832.611728
 42
-0.127534
  0
VERTEX
  8
0
 10
111.082876
 20
828.185192
 42
-0.071701
  0
VERTEX
  8
0
 10
111.926587
 20
821.966139
 42
-0.073200
  0
VERTEX
  8
0
 10
110.985340
 20
815.920687
 42
-0.152078
  0
VERTEX
  8
0
 10
108.308014
 20
812.027644
 42
-0.090566
  0
VERTEX
  8
0
 10
105.284512
 20
810.430919
 42
-0.087688
  0
VERTEX
  8
0
 10
101.856591
 20
809.981682
 42
-0.090190
  0
VERTEX
  8
0
 10
98.564131
 20
810.733555
 42
-0.103417
  0
VERTEX
  8
0
 10
95.924314
 20
812.580564
 42
-0.051417
  0
VERTEX
  8
0
 10
94.632518
 20
814.274748
 42
-0.077405
  0
VERTEX
  8
0
 10
93.920492
 20
815.986446
 42
-0.049525
  0
VERTEX
  8
0
 10
93.586848
 20
818.341548
 42
-0.010441
  0
VERTEX
  8
0
 10
93.500000
 20
822.500000
 42
-0.010441
  0
VERTEX
  8
0
 10
93.586848
 20
826.658452
 42
-0.049525
  0
VERTEX
  8
0
 10
93.920492
 20
829.013554
 42
-0.077405
  0
VERTEX
  8
0
 10
94.632518
 20
830.725252
 42
-0.051417
  0
VERTEX
  8
0
 10
95.924314
 20
832.419436
 42
-0.104646
  0
VERTEX
  8
0
 10
98.725073
 20
834.368922
 42
-0.096353
  0
VERTEX
  8
0
 10
102.160839
 20
835.091995
 42
-0.096327
  0
VERTEX
  8
0
 10
105.617905
 20
834.474525
 42
-0.104525
  0
SEQEND
  0
POLYLINE
  8
0
 66
1
 70
1
  0
VERTEX
  8
0
 10
143.384042
 20
837.558413
 42
0.083046
  0
VERTEX
  8
0
 10
142.984881
 20
835.596297
 42
0.131065
  0
VERTEX
  8
0
 10
143.366993
 20
833.931836
 42
0.140955
  0
VERTEX
  8
0
 10
144.496022
 20
832.759002
 42
0.102660
  0
VERTEX
  8
0
 10
146.223672
 20
832.186943
 42
0.041669
  0
VERTEX
  8
0
 10
147.633074
 20
832.142019
 42
0.133333
  0
VERTEX
  8
0
 10
148.518855
 20
832.432149
 42
0.139457
  0
VERTEX
  8
0
 10
149.113228
 20
833.120815
 42
0.047287
  0
VERTEX
  8
0
 10
149.559265
 20
834.380108
 42
0.031162
  0
VERTEX
  8
0
 10
149.751833
 20
835.417145
 42
0.032028
  0
VERTEX
  8
0
 10
149.811646
 20
836.460572
 42
0.033811
  0
VERTEX
  8
0
 10
149.744141
 20
837.366580
 42
0.103267
  0
VERTEX
  8
0
 10
149.535126
 20
837.943165
 42
0.197710
  0
VERTEX
  8
0
 10
148.372580
 20
838.785173
 42
0.074869
  0
VERTEX
  8
0
 10
146.336486
 20
838.962743
 42
0.075703
  0
VERTEX
  8
0
 10
144.361722
 20
838.534429
 42
0.213060
  0
SEQEND
  0
POLYLINE
  8
0
 66
1
 70
1
  0
VERTEX
  8
0
 10
251.551396
 20
837.043140
 42
0.071163
  0
VERTEX
  8
0
 10
248.732423
 20
834.546197
 42
0.069553
  0
VERTEX
  8
0
 10
246.700660
 20
831.340731
 42
0.062469
  0
VERTEX
  8
0
 10
245.474315
 20
827.394116
 42
0.042343
  0
VERTEX
  8
0
 10
245.041916
 20
822.700340
 42
0.034644
  0
VERTEX
  8
0
 10
245.310813
 20
818.371213
 42
0.061326
  0
VERTEX
  8
0
 10
246.207797
 20
814.913124
 42
0.065420
  0
VERTEX
  8
0
 10
247.865906
 20
811.927462
 42
0.045471
  0
VERTEX
  8
0
 10
250.437292
 20
809.045336
 42
0.139448
  0
VERTEX
  8
0
 10
255.270556
 20
806.563823
 42
0.060376
  0
VERTEX
  8
0
 10
262.544703
 20
806.005422
 42
0.066515
  0
VERTEX
  8
0
 10
268.956524
 20
807.151161
 42
0.326164
  0
VERTEX
  8
0
 10
271.000000
 20
809.950498
 42
0.046653
  0
VERTEX
  8
0
 10
270.901438
 20
811.004530
 42
0.256473
  0
VERTEX
  8
0
 10
270.551269
 20
811.430017
 42
0.167954
  0
VERTEX
  8
0
 10
269.881363
 20
811.461707
 42
0.019450
  0
VERTEX
  8
0
 10
268.434900
 20
810.975249
 42
-0.042869
  0
VERTEX
  8
0
 10
267.116910
 20
810.599626
 42
-0.015423
  0
VERTEX
  8
0
 10
265.190052
 20
810.286479
 42
-0.015167
  0
VERTEX
  8
0
 10
263.046811
 20
810.071583
 42
-0.017402
  0
VERTEX
  8
0
 10
260.990664
 20
810.000000
 42
-0.063906
  0
VERTEX
  8
0
 10
256.870031
 20
810.528824
 42
-0.101237
  0
VERTEX
  8
0
 10
253.686917
 20
812.094268
 42
-0.108108
  0
VERTEX
  8
0
 10
251.511744
 20
814.694797
 42
-0.080999
  0
VERTEX
  8
0
 10
250.335397
 20
818.250000
 42
0.000000
  0
VERTEX
  8
0
 10
249.738315
 20
822.000000
 42
0.000000
  0
VERTEX
  8
0
 10
261.380975
 20
822.000000
 42
0.000000
  0
VERTEX
  8
0
 10
273.023635
 20
822.000000
 42
0.000000
  0
VERTEX
  8
0
 10
272.372740
 20
826.250000
 42
0.033227
  0
VERTEX
  8
0
 10
271.481139
 20
830.267307
 42
0.057314
  0
VERTEX
  8
0
 10
270.151271
 20
833.418601
 42
0.068220
  0
VERTEX
  8
0
 10
268.345438
 20
835.793741
 42
0.076965
  0
VERTEX
  8
0
 10
266.032733
 20
837.483073
 42
0.074670
  0
VERTEX
  8
0
 10
262.632269
 20
838.640931
 42
0.052421
  0
VERTEX
  8
0
 10
258.593106
 20
838.941907
 42
0.053104
  0
VERTEX
  8
0
 10
254.651853
 20
838.400647
 42
0.085261
  0
SEQEND
  0
POLYLINE
  8
0
 66
1
 70
1
  0
VERTEX
  8
0
 10
264.685549
 20
832.825686
 42
-0.046799
  0
VERTEX
  8
0
 10
265.571256
 20
831.822085
 42
-0.038647
  0
VERTEX
  8
0
 10
266.320130
 20
830.606906
 42
-0.040183
  0
VERTEX
  8
0
 10
266.833900
 20
829.373601
 42
-0.078761
  0
VERTEX
  8
0
 10
267.000000
 20
828.325686
 42
-0.118278
  0
VERTEX
  8
0
 10
266.684078
 20
827.008860
 42
-0.211261
  0
VERTEX
  8
0
 10
265.836291
 20
826.318403
 42
-0.062554
  0
VERTEX
  8
0
 10
263.937640
 20
826.046719
 42
-0.004296
  0
VERTEX
  8
0
 10
258.500000
 20
826.000000
 42
-0.011955
  0
VERTEX
  8
0
 10
252.225762
 20
826.150042
 42
-0.186780
  0
VERTEX
  8
0
 10
250.297591
 20
827.004465
 42
-0.351518
  0
VERTEX
  8
0
 10
250.127089
 20
828.572400
 42
-0.032955
  0
VERTEX
  8
0
 10
252.588894
 20
831.923275
 42
-0.094266
  0
VERTEX
  8
0
 10
255.296151
 20
834.127410
 42
-0.105609
  0
VERTEX
  8
0
 10
258.517723
 20
835.070903
 42
-0.107408
  0
VERTEX
  8
0
 10
261.800555
 20
834.609843
 42
-0.100501
  0
SEQEND
  0
POLYLINE
  8
0
 66
1
 70
1
  0
VERTEX
  8
0
 10
774.551396
 20
837.043140
 42
0.071163
  0
VERTEX
  8
0
 10
771.732423
 20
834.546197
 42
0.069553
  0
VERTEX
  8
0
 10
769.700660
 20
831.340731
 42
0.062469
  0
VERTEX
  8
0
 10
768.474315
 20
827.394116
 42
0.042343
  0
VERTEX
  8
0
 10
768.041916
 20
822.700340
 42
0.034644
  0
VERTEX
  8
0
 10
768.310813
 20
818.371213
 42
0.061326
  0
VERTEX
  8
0
 10
769.207797
 20
814.913124
 42
0.065420
  0
VERTEX
  8
0
 10
770.865906
 20
811.927462
 42
0.045471
  0
VERTEX
  8
0
 10
773.437292
 20
809.045336
 42
0.139448
  0
VERTEX
  8
0
 10
778.270556
 20
806.563823
 42
0.060376
  0
VERTEX
  8
0
 10
785.544703
 20
806.005422
 42
0.066515
  0
VERTEX
  8
0
 10
791.956524
 20
807.151161
 42
0.326164
  0
VERTEX
  8
0
 10
794.000000
 20
809.950498
 42
0.046653
  0
VERTEX
  8
0
 10
793.901438
 20
811.004530
 42
0.256473
  0
VERTEX
  8
0
 10
793.551269
 20
811.430017
 42
0.167954
  0
VERTEX
  8
0
 10
792.881363
 20
811.461707
 42
0.019450
  0
VERTEX
  8
0
 10
791.434900
 20
810.975249
 42
-0.042869
  0
VERTEX
  8
0
 10
790.116910
 20
810.599626
 42
-0.015423
  0
VERTEX
  8
0
 10
788.190052
 20
810.286479
 42
-0.015167
  0
VERTEX
  8
0
 10
786.046811
 20
810.071583
 42
-0.017402
  0
VERTEX
  8
0
 10
783.990664
 20
810.000000
 42
-0.063906
  0
VERTEX
  8
0
 10
779.870031
 20
810.528824
 42
-0.101237
  0
VERTEX
  8
0
 10
776.686917
 20
812.094268
 42
-0.108108
  0
VERTEX
  8
0
 10
774.511744
 20
814.694797
 42
-0.080999
  0
VERTEX
  8
0
 10
773.335397
 20
818.250000
 42
0.000000
  0
VERTEX
  8
0
 10
772.738315
 20
822.000000
 42
0.000000
  0
VERTEX
  8
0
 10
784.380975
 20
822.000000
 42
0.000000
  0
VERTEX
  8
0
 10
796.023635
 20
822.000000
 42
0.000000
  0
VERTEX
  8
0
 10
795.372740
 20
826.250000
 42
0.033227
  0
VERTEX
  8
0
 10
794.481139
 20
830.267307
 42
0.057314
  0
VERTEX
  8
0
 10
793.151271
 20
833.418601
 42
0.068220
  0
VERTEX
  8
0
 10
791.345438
 20
835.793741
 42
0.076965
  0
VERTEX
  8
0
 10
789.032733
 20
837.483073
 42
0.074670
  0
VERTEX
  8
0
 10
785.632269
 20
838.640931
 42
0.052421
  0
VERTEX
  8
0
 10
781.593106
 20
838.941907
 42
0.053104
  0
VERTEX
  8
0
 10
777.651853
 20
838.400647
 42
0.085261
  0
SEQEND
  0
POLYLINE
  8
0
 66
1
 70
1
  0
VERTEX
  8
0
 10
787.685549
 20
832.825686
 42
-0.046799
  0
VERTEX
  8
0
 10
788.571256
 20
831.822085
 42
-0.038647
  0
VERTEX
  8
0
 10
789.320130
 20
830.606906
 42
-0.040183
  0
VERTEX
  8
0
 10
789.833900
 20
829.373601
 42
-0.078761
  0
VERTEX
  8
0
 10
790.000000
 20
828.325686
 42
-0.118278
  0
VERTEX
  8
0
 10
789.684078
 20
827.008860
 42
-0.211261
  0
VERTEX
  8
0
 10
788.836291
 20
826.318403
 42
-0.062554
  0
VERTEX
  8
0
 10
786.937640
 20
826.046719
 42
-0.004296
  0
VERTEX
  8
0
 10
781.500000
 20
826.000000
 42
-0.011955
  0
VERTEX
  8
0
 10
775.225762
 20
826.150042
 42
-0.186780
  0
VERTEX
  8
0
 10
773.297591
 20
827.004465
 42
-0.351518
  0
VERTEX
  8
0
 10
773.127089
 20
828.572400
 42
-0.032955
  0
VERTEX
  8
0
 10
775.588894
 20
831.923275
 42
-0.094266
  0
VERTEX
  8
0
 10
778.296151
 20
834.127410
 42
-0.105609
  0
VERTEX
  8
0
 10
781.517723
 20
835.070903
 42
-0.107408
  0
VERTEX
  8
0
 10
784.800555
 20
834.609843
 42
-0.100501
  0
SEQEND
  0
POLYLINE
  8
0
 66
1
 70
1
  0
VERTEX
  8
0
 10
1242.061664
 20
837.172735
 42
0.078283
  0
VERTEX
  8
0
 10
1238.982881
 20
834.839429
 42
0.077951
  0
VERTEX
  8
0
 10
1236.765245
 20
831.669482
 42
0.069001
  0
VERTEX
  8
0
 10
1235.440284
 20
827.631749
 42
0.044852
  0
VERTEX
  8
0
 10
1235.000000
 20
822.733483
 42
0.037078
  0
VERTEX
  8
0
 10
1235.376549
 20
817.662686
 42
0.062608
  0
VERTEX
  8
0
 10
1236.525447
 20
813.564053
 42
0.074208
  0
VERTEX
  8
0
 10
1238.463906
 20
810.377340
 42
0.082347
  0
VERTEX
  8
0
 10
1241.189824
 20
808.025635
 42
0.094624
  0
VERTEX
  8
0
 10
1245.776606
 20
806.305322
 42
0.057394
  0
VERTEX
  8
0
 10
1251.582020
 20
805.982951
 42
0.064079
  0
VERTEX
  8
0
 10
1256.465763
 20
806.907889
 42
0.324644
  0
VERTEX
  8
0
 10
1258.000000
 20
809.021804
 42
0.148368
  0
VERTEX
  8
0
 10
1257.723887
 20
809.931819
 42
0.194252
  0
VERTEX
  8
0
 10
1257.012354
 20
810.416411
 42
0.068270
  0
VERTEX
  8
0
 10
1255.525182
 20
810.532410
 42
0.007986
  0
VERTEX
  8
0
 10
1252.196515
 20
810.284103
 42
-0.014302
  0
VERTEX
  8
0
 10
1248.823173
 20
810.075272
 42
-0.064798
  0
VERTEX
  8
0
 10
1246.865617
 20
810.264153
 42
-0.085460
  0
VERTEX
  8
0
 10
1245.293106
 20
810.921805
 42
-0.035952
  0
VERTEX
  8
0
 10
1243.446515
 20
812.292347
 42
-0.041948
  0
VERTEX
  8
0
 10
1241.754105
 20
814.014856
 42
-0.103295
  0
VERTEX
  8
0
 10
1240.928577
 20
815.574265
 42
-0.062013
  0
VERTEX
  8
0
 10
1240.578494
 20
817.783586
 42
-0.008321
  0
VERTEX
  8
0
 10
1240.500000
 20
822.500000
 42
-0.008321
  0
VERTEX
  8
0
 10
1240.578488
 20
827.215820
 42
-0.061987
  0
VERTEX
  8
0
 10
1240.928486
 20
829.425324
 42
-0.103276
  0
VERTEX
  8
0
 10
1241.753702
 20
830.984669
 42
-0.041992
  0
VERTEX
  8
0
 10
1243.445011
 20
832.706360
 42
-0.034685
  0
VERTEX
  8
0
 10
1245.264796
 20
834.064168
 42
-0.084630
  0
VERTEX
  8
0
 10
1246.798592
 20
834.717761
 42
-0.067788
  0
VERTEX
  8
0
 10
1248.662705
 20
834.902159
 42
-0.016520
  0
VERTEX
  8
0
 10
1251.751870
 20
834.686160
 42
0.012086
  0
VERTEX
  8
0
 10
1254.526164
 20
834.467442
 42
0.054532
  0
VERTEX
  8
0
 10
1256.146735
 20
834.555773
 42
0.107343
  0
VERTEX
  8
0
 10
1257.125718
 20
834.943703
 42
0.154524
  0
VERTEX
  8
0
 10
1257.702576
 20
835.667309
 42
0.092926
  0
VERTEX
  8
0
 10
1257.822116
 20
836.320197
 42
0.079618
  0
VERTEX
  8
0
 10
1257.708465
 20
837.010684
 42
0.079474
  0
VERTEX
  8
0
 10
1257.384397
 20
837.632180
 42
0.092024
  0
VERTEX
  8
0
 10
1256.895717
 20
838.085612
 42
0.125180
  0
VERTEX
  8
0
 10
1254.323358
 20
838.924972
 42
0.031962
  0
VERTEX
  8
0
 10
1249.905610
 20
838.935754
 42
0.033385
  0
VERTEX
  8
0
 10
1245.346321
 20
838.347999
 42
0.074466
  0
SEQEND
  0
POLYLINE
  8
0
 66
1
 70
1
  0
VERTEX
  8
0
 10
143.384042
 20
811.558413
 42
0.083046
  0
VERTEX
  8
0
 10
142.984881
 20
809.596297
 42
0.131065
  0
VERTEX
  8
0
 10
143.366993
 20
807.931836
 42
0.140955
  0
VERTEX
  8
0
 10
144.496022
 20
806.759002
 42
0.102660
  0
VERTEX
  8
0
 10
146.223672
 20
806.186943
 42
0.041669
  0
VERTEX
  8
0
 10
147.633074
 20
806.142019
 42
0.133333
  0
VERTEX
  8
0
 10
148.518855
 20
806.432149
 42
0.139457
  0
VERTEX
  8
0
 10
149.113228
 20
807.120815
 42
0.047287
  0
VERTEX
  8
0
 10
149.559265
 20
808.380108
 42
0.031162
  0
VERTEX
  8
0
 10
149.751833
 20
809.417145
 42
0.032028
  0
VERTEX
  8
0
 10
149.811646
 20
810.460572
 42
0.033811
  0
VERTEX
  8
0
 10
149.744141
 20
811.366580
 42
0.103267
  0
VERTEX
  8
0
 10
149.535126
 20
811.943165
 42
0.197710
  0
VERTEX
  8
0
 10
148.372580
 20
812.785173
 42
0.074869
  0
VERTEX
  8
0
 10
146.336486
 20
812.962743
 42
0.075703
  0
VERTEX
  8
0
 10
144.361722
 20
812.534429
 42
0.213060
  0
SEQEND
  0
ENDSEC
  0
EOF
